<?xml version="1.0" encoding="UTF-8"?>
<svg id="Layer_1" data-name="Layer 1" xmlns="http://www.w3.org/2000/svg" viewBox="0 0 268 204">
  <defs>
    <style>
      .cls-1 {
        fill: #e90000;
      }
    </style>
  </defs>
  <path class="cls-1" d="M36.57,129.69c3.33-1.17,6.02-2.79,8.54-4.4l.72-.45c2.7-1.71,5.39-3.6,8.09-5.93,6.02-5.12,9.62-10.25,11.69-16.36.81-2.52,2.07-7.37.54-11.95-1.08-3.33-3.15-6.11-6.11-8.18-.36-.27-4.13-3.24-11.15-3.24-6.47,0-13.57,2.43-21.03,7.28l-.27.18h0c-.27.09-.45.27-.63.45-.18.09-.36.27-.54.36-1.53.99-2.97,2.16-4.4,3.33-3.24,2.97-6.83,8-6.65,12.22.09,1.8.9,3.33,2.25,4.4,1.26.99,2.88,1.44,4.76,1.44,3.87,0,8.09-2.07,10.97-3.78.18-.09.36-.27.54-.36.54-.36.99-.63,1.53-.99l.54-.36c4.13-2.7,8.36-5.48,13.12-7.1,1.26-.45,2.34-.63,3.33-.63.45,0,.99,0,1.44.18,1.44.36,2.52,1.17,3.15,2.43,1.08,2.25.81,5.66-.63,8.9-2.07,4.31-5.57,8.63-10.52,12.76-2.52,2.07-4.85,3.69-6.83,4.76l-.27.09c-.99.54-2.07,1.08-3.15,1.53l-.18.09c-.36.09-.63.27-.9.36-4.76,1.26-1.89-2.88-1.89-2.88,1.08-1.26,2.16-2.25,3.24-3.24.63-.63,1.35-1.17,1.98-1.89l.18-.18c.81-.81,1.98-1.98,1.89-3.6-.09-2.16-2.34-3.51-4.4-3.51h-.18c-1.98,0-3.87,1.17-5.12,2.16-1.26.99-2.52,2.43-3.42,3.78-1.26,1.98-3.96,7.01-1.35,11.06,1.08,1.62,2.79,2.43,5.21,2.43,1.71,0,3.69-.36,5.93-1.17ZM129.78,72.34c-3.78,0-6.92,2.97-6.92,6.65s2.97,6.65,6.83,6.65,6.83-2.97,6.83-6.65c.09-1.8-.63-3.51-1.89-4.67-1.26-1.26-2.97-1.98-4.85-1.98ZM124.39,130.85h10.7v-41.8l-10.7,1.71v40.09h0ZM101.01,88.34c-5.12,0-9.71,1.44-14.47,3.69l-1.17.63,2.88,6.29,1.62-.72c3.33-1.44,6.92-2.43,10.16-2.34,3.87.18,5.48,1.89,5.48,5.57v2.16h-6.38c-10.25,0-16.54,5.3-16.72,13.48,0,7.82,6.65,14.56,15.91,14.56,7.46,0,13.84-2.34,18.07-6.56v-22.38c-.09-10.88-8-14.38-15.37-14.38ZM105.42,122.94c-1.08.72-3.24,1.35-5.57,1.35-4.31,0-6.29-3.24-6.2-7.01.09-3.15,2.07-6.65,7.46-6.65h4.31v12.31h0ZM214,124.2c-2.97,0-4.94-.99-6.2-2.34-1.89-2.07-2.79-6.2-2.52-10.7h23.1v-1.08c-.18-14.83-5.39-21.57-16.63-21.57-12.58,0-17.53,11.33-17.62,22.02-.09,6.74,2.52,13.57,7.28,17.44,2.88,2.34,6.92,3.69,11.51,3.69,2.52,0,5.21-.36,7.64-1.08,4.67-1.44,8.09-3.87,8.09-3.87l-3.06-6.11c-.63.45-5.3,3.6-11.6,3.6h0ZM211.67,96.43c4.76,0,5.48,5.03,5.48,8.18h-11.6c.18-4.04,1.89-8.18,6.11-8.18h0ZM143.62,96.52v34.34h10.97v-32.27c1.44-1.35,4.49-2.52,7.37-2.7,2.7-.09,4.4.45,4.4.45l3.06-6.65c-1.17-.54-3.96-1.26-7.19-1.26-4.85,0-12.04,1.35-18.61,8.09ZM251.04,124.2c-4.49-.36-5.39-2.25-5.39-5.48v-41.35l-10.79,1.8v38.83c0,9.17,5.12,13.12,13.66,13.12,1.8,0,4.13-.45,4.13-.45v-6.56c0,.18-.99.18-1.62.09ZM183.17,77.55l-10.97,1.71v39.01c0,8.72,5.21,12.85,14.02,12.85,2.07,0,4.04-.36,4.04-.36v-6.47h-1.53c-4.58-.18-5.48-2.61-5.48-5.48v-22.02h7.1v-7.73h-7.1l-.09-11.51h0Z"/>
</svg>