<?xml version="1.0" encoding="UTF-8"?>
<svg id="Layer_1" data-name="Layer 1" xmlns="http://www.w3.org/2000/svg" viewBox="0 0 268 204">
  <path d="M196.41,145.2c-2.34,5.4-5.11,10.38-8.32,14.95-4.37,6.23-7.95,10.55-10.71,12.95-4.28,3.93-8.86,5.95-13.77,6.06-3.52,0-7.77-1-12.72-3.04-4.96-2.02-9.52-3.03-13.69-3.03s-9.06,1-14.08,3.03c-5.02,2.03-9.07,3.09-12.17,3.2-4.71.2-9.4-1.87-14.08-6.23-2.99-2.61-6.73-7.07-11.2-13.4-4.8-6.76-8.75-14.6-11.85-23.54-3.31-9.65-4.98-19-4.98-28.05,0-10.37,2.24-19.31,6.73-26.8,3.53-6.02,8.22-10.77,14.09-14.25,5.87-3.48,12.21-5.26,19.05-5.37,3.74,0,8.64,1.16,14.73,3.43,6.07,2.28,9.97,3.44,11.68,3.44,1.28,0,5.61-1.35,12.96-4.05,6.95-2.5,12.81-3.53,17.61-3.13,13.01,1.05,22.79,6.18,29.29,15.42-11.64,7.05-17.4,16.93-17.28,29.6.11,9.87,3.69,18.08,10.72,24.6,3.19,3.03,6.75,5.37,10.71,7.03-.86,2.49-1.77,4.88-2.73,7.17h0ZM166.57,27.76c0,7.74-2.83,14.96-8.46,21.64-6.8,7.95-15.02,12.54-23.94,11.82-.12-.97-.18-1.95-.18-2.93,0-7.43,3.23-15.37,8.97-21.87,2.87-3.29,6.51-6.03,10.93-8.21,4.41-2.15,8.58-3.34,12.51-3.54.11,1.03.16,2.07.16,3.09h0Z"/>
</svg>