<?xml version="1.0" encoding="UTF-8"?>
<svg id="Layer_1" data-name="Layer 1" xmlns="http://www.w3.org/2000/svg" viewBox="0 0 268 204">
  <defs>
    <style>
      .cls-1 {
        fill: #4f4c4d;
      }

      .cls-2 {
        fill: #b07e25;
      }

      .cls-3 {
        fill: #a49668;
      }

      .cls-4 {
        fill: #a7a5a6;
      }
    </style>
  </defs>
  <path class="cls-2" d="M74.72,84.61l-27.86-10.89c-5.99,3.28-10.88,7.07-14.85,10.89,3.97,3.82,8.86,7.61,14.85,10.89l27.86-10.89Z"/>
  <path class="cls-4" d="M16.64,61.9s2.95,9.59,12.63,19.91c4.29-3.3,9.46-6.3,15.61-8.88l-28.24-11.04Z"/>
  <path class="cls-3" d="M16.64,107.32s2.95-9.58,12.63-19.91c4.29,3.3,9.46,6.3,15.61,8.88l-28.24,11.04Z"/>
  <path class="cls-1" d="M158.37,139.49h-7.88v-8.63h5.95v2.59h1.99v-7.11h-1.99v2.56h-5.95v-8.22h7.57v2.88h1.96v-5.82h-1.99v.95h-13.87v1.68h2.53v19.37h-2.53v1.7h16.21v-4.94h-1.99v2.98ZM244.12,118.7v1.68h2.57v14.43l-11.77-16.11h-5.9v1.68h2.44l.81,1.14v18.23h-2.56v1.7h7.26v-1.7h-2.57v-15.33l12.65,17.41h1.78v-21.45h2.53v-1.68h-7.24ZM214.82,118.29c-6.25,0-11.33,5.3-11.33,11.82s5.09,11.78,11.33,11.78,11.24-5.3,11.24-11.82-5.04-11.78-11.24-11.78M214.82,139.68c-4.22,0-7.16-3.96-7.16-9.62s2.96-9.58,7.2-9.58,7.03,3.94,7.03,9.58-2.9,9.62-7.07,9.62M125.74,135.05l-7.66-16.36h-6.35v1.68h2.57v19.37h-2.57v1.7h7.27v-1.7h-2.57v-15.78l8.49,18.13,8.06-17.73v15.38h-2.53v1.7h8.87v-1.7h-2.54v-19.37h2.54v-1.68h-6.04l-7.54,16.36ZM179.71,139.49h-7.48v-19.11h2.54v-1.68h-8.89v1.68h2.54v19.37h-2.54v1.7h15.83v-4.94h-2v2.98ZM199.21,139.49h-7.5v-19.11h2.53v-1.68h-8.88v1.68h2.55v19.37h-2.55v1.7h15.83v-4.94h-1.98v2.98ZM91.46,120.38h2.91l-4.89,8.06-5.25-8.06h2.64v-1.68h-9.19v1.68h2.05l6.92,10.64v8.73h-2.53v1.7h8.87v-1.7h-2.57v-8.93l6.4-10.44h1.84v-1.68h-7.2v1.68ZM44.9,129.44c2.16-.61,4.18-2.3,4.18-4.99,0-3.5-2.59-5.75-6.62-5.75h-10.45v1.68h2.53v19.37h-2.53v1.7h11.04c4.26,0,7.11-2.42,7.11-6.04s-2.57-5.39-5.26-5.98M38.36,120.68h2.79c1.48,0,3.96.51,3.96,3.9,0,2.82-2.08,4.08-4.15,4.08h-2.61v-7.98ZM41.27,139.49h-2.92v-8.86h2.92c3.03,0,4.99,1.81,4.99,4.61,0,3.13-2.68,4.25-4.99,4.25M68.7,120.38h2.58v14.43l-11.78-16.11h-5.88v1.68h2.43l.8,1.14v18.24h-2.57v1.69h7.27v-1.69h-2.56v-15.33l12.65,17.41h1.77v-21.45h2.54v-1.68h-7.24v1.68Z"/>
</svg>