<?xml version="1.0" encoding="UTF-8"?>
<svg id="Layer_1" data-name="Layer 1" xmlns="http://www.w3.org/2000/svg" viewBox="0 0 268 204">
  <defs>
    <style>
      .cls-1 {
        fill: #fcb912;
      }
    </style>
  </defs>
  <path d="M121.21,116.91v-8.56c0-4.05-1.45-6.41-4.53-6.97,3.59-.95,4.57-3.97,4.57-7.82,0-5.44-1.97-8.83-8.3-8.83h-11.37v35.23h7.56v-15.32h1.87c1.83,0,2.68,1.25,2.68,2.94v9.37c0,1.57.32,2.7.54,3.02h7.64c-.26-.3-.66-1.51-.66-3.06M111.14,98.7l-2,.04v-7.96h2.28c1.73,0,2.3,1.27,2.3,4.05s-.64,3.87-2.58,3.87"/>
  <path d="M36.35,113.97c1.35-1.13,1.59-2.52,1.59-3.77v-5.26h-7.34v7.15c0,1.01-.83,1.85-1.85,1.85s-1.79-.83-1.79-1.85v-20.25c0-1.01.75-1.85,1.79-1.85s1.85.83,1.85,1.85v7.19h7.34v-7.46c-.02-4.13-2.72-7.52-9.27-7.52s-9.29,3.41-9.29,7.52v21.14c0,4.09,3.24,7.19,7.38,7.19h2.28l7.3-5.92Z"/>
  <path d="M238.42,116.89v-8.56c0-4.05-1.45-6.41-4.53-6.97,3.59-.95,4.57-3.97,4.57-7.82,0-5.44-1.97-8.83-8.3-8.83h-11.37v35.23h7.58v-15.32h1.85c1.83,0,2.68,1.25,2.68,2.94v9.37c0,1.57.32,2.72.54,3.02h7.64c-.24-.3-.66-1.51-.66-3.06M228.35,98.69h-2v-7.94h2.3c1.73,0,2.3,1.27,2.3,4.05s-.64,3.89-2.6,3.89"/>
  <path d="M210.07,84.65h-10.18l-6.03,35.29h7.66l.75-6.23h5.48l.75,6.23h7.66l-6.09-35.29ZM203.05,107.28l1.97-16.44,1.97,16.44h-3.93Z"/>
  <polygon points="159.36 119.94 159.36 84.73 167.12 84.73 167.12 113.25 175.2 113.25 175.2 119.94 159.36 119.94"/>
  <rect x="147.49" y="84.73" width="7.76" height="35.21"/>
  <polygon points="177.06 119.94 177.06 84.73 184.82 84.73 184.82 113.25 192.9 113.25 192.9 119.94 177.06 119.94"/>
  <path d="M136.75,84.73h-11.83v35.23h7.58v-13.97h4.25c6.97,0,8.14-4.45,8.14-10.62,0-6.21-1.17-10.64-8.14-10.64M134.78,99.74l-2.3-.02v-8.93h2.3c1.97,0,2.3,1.35,2.3,4.57,0,3.33-.34,4.39-2.3,4.39"/>
  <polygon points="88.48 91.44 88.48 98.43 96.51 98.43 96.51 105.31 88.48 105.31 88.48 113.14 98.02 113.14 98.02 119.92 80.71 119.94 80.71 84.71 80.71 84.71 97.71 84.71 97.71 91.44 88.48 91.44"/>
  <polygon points="65.33 114.8 65.33 91.58 60.27 91.58 60.27 84.73 78.63 84.73 78.63 91.58 73.53 91.58 73.53 119.84 71.34 119.84 65.33 114.8"/>
  <polygon class="cls-1" points="68.63 119.88 50.74 104.9 32.2 119.88 68.63 119.88"/>
  <path d="M55.84,84.77h-10.24l-5.97,26.78,11.12-8.97,11.59,9.71-6.49-27.51ZM48.76,100.87l1.98-10.12,1.97,10.12h-3.95Z"/>
  <path d="M248.62,87.19c0,1.65-1.31,2.98-2.96,2.98s-2.98-1.33-2.98-2.98,1.33-2.96,2.98-2.96,2.96,1.31,2.96,2.96M248.07,87.19c0-1.33-1.09-2.4-2.4-2.4s-2.42,1.07-2.42,2.4,1.07,2.42,2.42,2.42c1.33,0,2.4-1.09,2.4-2.42M245.29,88.92h-.77v-3.45h1.45c.54,0,.87.32.87.91,0,.44-.18.77-.69.85v.02c.18,0,.67.04.67.67,0,.22.02.87.08,1.01h-.77c-.1-.22-.1-.44-.1-.67,0-.4.06-.75-.54-.75h-.2v1.41h0ZM245.29,86.99h.36c.32,0,.42-.28.42-.52,0-.32-.16-.46-.42-.46h-.36v.97Z"/>
</svg>