<?xml version="1.0" encoding="UTF-8"?>
<svg id="Layer_1" data-name="Layer 1" xmlns="http://www.w3.org/2000/svg" viewBox="0 0 268 204">
  <defs>
    <style>
      .cls-1 {
        fill: #fc0;
      }

      .cls-2 {
        fill: #d40511;
      }
    </style>
  </defs>
  <rect class="cls-1" x="13.48" y="75.4" width="241.04" height="53.19"/>
  <g>
    <g>
      <g>
        <polygon class="cls-2" points="13.48 112.18 46.08 112.18 44.3 114.6 13.48 114.6 13.48 112.18 13.48 112.18"/>
        <polygon class="cls-2" points="13.48 107.68 49.39 107.68 47.61 110.1 13.48 110.1 13.48 107.68 13.48 107.68"/>
        <polygon class="cls-2" points="13.48 116.68 42.77 116.68 40.99 119.08 13.48 119.08 13.48 116.68 13.48 116.68"/>
      </g>
      <g>
        <polygon class="cls-2" points="254.52 114.6 222.05 114.6 223.83 112.18 254.52 112.18 254.52 114.6 254.52 114.6"/>
        <polygon class="cls-2" points="254.52 119.08 218.75 119.08 220.52 116.68 254.52 116.68 254.52 119.08 254.52 119.08"/>
        <polygon class="cls-2" points="227.14 107.68 254.52 107.68 254.52 110.1 225.36 110.1 227.14 107.68 227.14 107.68"/>
      </g>
    </g>
    <g>
      <path class="cls-2" d="M45.05,119.08l15.47-21.02h19.19c2.12,0,2.09.81,1.06,2.21-1.05,1.43-2.84,3.88-3.92,5.33-.54.74-1.53,2.08,1.73,2.08h25.71c-2.14,2.93-9.08,11.4-21.53,11.4h-37.72Z"/>
      <path class="cls-2" d="M133.64,107.68l-8.39,11.4h-22.13s8.38-11.4,8.39-11.4h22.12Z"/>
      <path class="cls-2" d="M165.63,107.68l-8.39,11.4h-22.12s8.38-11.4,8.39-11.4h22.12Z"/>
      <path class="cls-2" d="M172.83,107.68s-1.62,2.21-2.4,3.27c-2.78,3.76-.32,8.13,8.75,8.13h35.52l8.39-11.4h-50.26Z"/>
    </g>
    <g>
      <path class="cls-2" d="M55.87,85l-7.7,10.46h41.97c2.12,0,2.09.81,1.06,2.21-1.05,1.42-2.82,3.91-3.89,5.35-.54.73-1.53,2.07,1.73,2.07h17.16s2.77-3.76,5.09-6.91c3.16-4.28.27-13.19-11-13.19h-44.42Z"/>
      <polygon class="cls-2" points="167.54 105.1 113.42 105.1 128.22 85 150.33 85 141.85 96.52 151.73 96.52 160.21 85 182.33 85 167.54 105.1 167.54 105.1"/>
      <path class="cls-2" d="M212.96,85l-14.8,20.1h-23.44s14.8-20.1,14.81-20.1h23.43Z"/>
    </g>
  </g>
</svg>