<?xml version="1.0" encoding="UTF-8"?>
<svg id="Layer_1" data-name="Layer 1" xmlns="http://www.w3.org/2000/svg" xmlns:xlink="http://www.w3.org/1999/xlink" viewBox="0 0 268 204">
  <defs>
    <style>
      .cls-1 {
        stroke-width: 1.25px;
      }

      .cls-1, .cls-2, .cls-3, .cls-4 {
        fill: none;
      }

      .cls-1, .cls-3 {
        stroke: #fff;
      }

      .cls-1, .cls-3, .cls-4 {
        stroke-miterlimit: 10;
      }

      .cls-5 {
        fill: #fff;
      }

      .cls-5, .cls-6, .cls-7 {
        fill-rule: evenodd;
      }

      .cls-6 {
        fill: #d9261c;
      }

      .cls-3 {
        stroke-width: 2.5px;
      }

      .cls-8 {
        clip-path: url(#clippath);
      }

      .cls-4 {
        stroke: #1f1917;
        stroke-width: .27px;
      }

      .cls-7 {
        fill: #0a1fb3;
      }
    </style>
    <clipPath id="clippath">
      <path class="cls-2" d="M41.57,78.55c12.47-3.34,25.36,4.1,28.7,16.57s-4.1,25.36-16.57,28.7c-12.47,3.34-25.36-4.1-28.7-16.57-3.34-12.47,4.1-25.36,16.57-28.7Z"/>
    </clipPath>
  </defs>
  <g id="layer1">
    <path id="path1360" class="cls-3" d="M81.59,91l-3.38-.1,3.99-12.72h15.99s.34-1.26.34-1.26l11.82-.03-4.11,14.01h-11.73s0,3.78,0,3.78l15.01.05-3.09,9.79h-12.03v4.3l15.29-.08-3.65,13.1-24.47-.02v-30.82h0Z"/>
    <path id="path1362" class="cls-6" d="M81.59,92.25l-3.38-.1,3.99-12.72h15.99s.34-1.26.34-1.26l11.82-.03-4.11,14.01h-11.73s0,3.78,0,3.78l15.01.05-3.09,9.79h-12.03v4.3l15.29-.08-3.65,13.1-24.47-.02"/>
    <path id="path1364" class="cls-3" d="M113.63,78.18h13.91l5.05,9.58,5.77-9.58h13.6s-11.25,21.21-11.25,21.21l12.48,22.4-12.85.05-7.32-13.04-6.82,12.9h-13.55l12.93-22.29-11.95-21.23h0Z"/>
    <path id="path1366" class="cls-6" d="M113.63,79.43h13.91l5.05,9.58,5.77-9.58h13.6s-11.25,21.21-11.25,21.21l12.48,22.4-12.85.05-7.32-13.04-6.82,12.9h-13.55l12.93-22.29"/>
    <path id="path1368" class="cls-4" d="M153.82,91.45l3.79-11.93h11.82l-.49,43.43h-12.09l.32-31.51h-3.34Z"/>
    <path id="path1370" class="cls-3" d="M153.82,90.33l3.79-11.93h11.82l-.49,43.43h-12.09l.32-31.51h-3.34Z"/>
    <path id="path1372" class="cls-6" d="M153.82,91.58l3.79-11.93h11.82l-.49,43.43h-12.09l.32-31.51"/>
    <path id="path1374" class="cls-3" d="M172.44,90.42l3.71-11.95h16.56c23.88,4.72,21.4,37.44,1.12,43.37l-18.19-.03-.12-31.39h-3.09s0,0,0,0Z"/>
    <path id="path1376" class="cls-3" d="M215.89,78.64h15.21s1.17-1.15,1.17-1.15l11.54-.02-3.81,13.74-11.46-.05-.05,4.09,14.29-.03-2.69,9.39-12.23.12-.03,4.68,14.86.05-3.16,12.26-24.1.12.23-31.15h-3.03s3.26-12.04,3.26-12.04h0Z"/>
    <path id="path1378" class="cls-6" d="M215.89,79.89h15.21s1.17-1.15,1.17-1.15l11.54-.02-3.81,13.74-11.46-.05-.05,4.09,14.29-.03-2.69,9.39-12.23.12-.03,4.68,14.86.05-3.16,12.26-24.1.12.23-31.15h-3.03"/>
    <path id="path1380" class="cls-7" d="M48.89,80.25c12.91,0,23.43,10.53,23.43,23.43s-10.53,23.43-23.43,23.43-23.43-10.53-23.43-23.43,10.53-23.43,23.43-23.43"/>
    <g id="g1382">
      <g class="cls-8">
        <g id="g1384">
          <path id="path1390" class="cls-5" d="M30.67,118.75l6.66-23.17,8.84,10.21,5.25-18.35,8.63,9.44,4.31-14.26,3.66,3.54-6.92,23.09-8.53-9.92-5.46,18.41-8.74-9.86-4.22,13.78"/>
        </g>
      </g>
    </g>
    <path id="path1392" class="cls-1" d="M188.31,104.99c11.84,0,11.66,17.48,0,17.48v-17.48s0,0,0,0Z"/>
    <path id="path1394" class="cls-6" d="M172.44,91.67l3.71-11.95h16.56c23.88,4.72,21.4,37.44,1.12,43.37l-18.19-.03-.12-31.39h-3.09s0,0,0,0ZM188.31,92.58c11.84,0,11.66,17.48,0,17.48"/>
    <path id="path1396" class="cls-1" d="M188.31,92.56c11.84,0,11.66,17.48,0,17.48v-17.48Z"/>
  </g>
</svg>