<?xml version="1.0" encoding="UTF-8"?>
<svg id="Layer_1" data-name="Layer 1" xmlns="http://www.w3.org/2000/svg" xmlns:xlink="http://www.w3.org/1999/xlink" viewBox="0 0 268 204">
  <defs>
    <style>
      .cls-1 {
        fill: url(#linear-gradient-2);
      }

      .cls-2 {
        fill: url(#linear-gradient-4);
      }

      .cls-3 {
        fill: url(#linear-gradient-3);
      }

      .cls-4 {
        fill: #231f20;
      }

      .cls-5 {
        fill: url(#linear-gradient);
      }
    </style>
    <linearGradient id="linear-gradient" x1="46.56" y1="348.5" x2="14.91" y2="350.71" gradientTransform="translate(0 -252.74)" gradientUnits="userSpaceOnUse">
      <stop offset="0" stop-color="#4f2683"/>
      <stop offset=".12" stop-color="#4f2683"/>
      <stop offset=".12" stop-color="#4f2683"/>
      <stop offset=".31" stop-color="#684795"/>
      <stop offset=".55" stop-color="#836aa9"/>
      <stop offset=".75" stop-color="#947fb5"/>
      <stop offset=".87" stop-color="#9a87b9"/>
      <stop offset="1" stop-color="#8c76af"/>
    </linearGradient>
    <linearGradient id="linear-gradient-2" x1="-2552.07" y1="2545.98" x2="-2583.74" y2="2548.19" gradientTransform="translate(-2514.91 -2459.3) rotate(-90)" xlink:href="#linear-gradient"/>
    <linearGradient id="linear-gradient-3" x1="-4749.57" y1="-52.65" x2="-4781.24" y2="-50.44" gradientTransform="translate(-4721.47 55.62) rotate(-180)" xlink:href="#linear-gradient"/>
    <linearGradient id="linear-gradient-4" x1="-2150.94" y1="-2250.13" x2="-2182.61" y2="-2247.92" gradientTransform="translate(-2206.55 2262.17) rotate(90)" xlink:href="#linear-gradient"/>
  </defs>
  <path class="cls-4" d="M107.41,111.17c-2.18,0-2.99-.96-2.99-2.49,0-1.77.99-2.67,3.56-2.67h3.4v1.01c0,2.7-1.66,4.15-3.97,4.15ZM101.49,108.96c0,2.1,1.22,4.36,5.04,4.36,2.21,0,3.74-.86,4.8-2.21l.36,1.87h2.39v-10.07c0-4.31-2.57-5.06-5.63-5.06-2.31,0-5.35.68-6.08,4.15h2.93c.36-1.3,1.25-2.05,3.12-2.05,1.53,0,2.99.55,2.99,2.99v1.06h-3.22c-3.92,0-6.7,1.3-6.7,4.96h0ZM93.7,112.98h2.75v-9.24c0-2.16,1.32-3.12,3.01-3.12.57,0,1.17.03,1.77.13v-2.67c-.52-.18-.99-.21-1.45-.21-1.53,0-2.73.91-3.32,2.18l-.34-1.79h-2.41v14.72h0ZM191.32,112.98h2.75v-9.24c0-2.16,1.32-3.12,3.01-3.12.57,0,1.17.03,1.77.13v-2.67c-.52-.18-.99-.21-1.45-.21-1.53,0-2.73.91-3.32,2.18l-.34-1.79h-2.41v14.72ZM139.58,100.62v-2.41h-3.01v-4.21l-2.83.44v3.76h-2.13v2.41h2.13v9.37c0,2.1.78,3.38,3.87,3.38.68,0,1.69-.13,2.31-.31v-2.1c-.65.18-1.25.21-1.69.21-1.3,0-1.66-.62-1.66-1.97v-8.57h3.01ZM222.64,100.62v-2.41h-3.04v-4.21l-2.83.44v3.76h-2.13v2.41h2.13v9.37c0,2.1.78,3.38,3.87,3.38.68,0,1.69-.13,2.31-.31v-2.1c-.65.18-1.25.21-1.69.21-1.3,0-1.66-.62-1.66-1.97v-8.57h3.04ZM181.61,111.06c-2.65,0-4.36-1.84-4.36-5.5s1.77-5.48,4.39-5.48,4.21,1.95,4.21,5.63c0,3.58-1.61,5.35-4.23,5.35h0ZM230.84,111.06c-2.65,0-4.36-1.84-4.36-5.5s1.77-5.48,4.39-5.48,4.21,1.95,4.21,5.63c.03,3.58-1.61,5.35-4.23,5.35h0ZM200.77,112.98h2.7v-8.52c0-2.44,1.06-4.15,3.61-4.15,2.39,0,3.12,1.01,3.12,3.51v9.14h2.75v-9.92c0-3.4-1.43-5.17-4.65-5.17-2.21,0-3.84.8-4.83,2.21l-.34-1.87h-2.34v14.77h-.03ZM117.64,112.98h2.67v-8.52c0-2.44,1.06-4.15,3.61-4.15,2.39,0,3.12,1.01,3.12,3.51v9.14h2.75v-9.92c0-3.4-1.43-5.17-4.65-5.17-2.21,0-3.84.8-4.83,2.21l-.34-1.87h-2.34v14.77h0ZM240.6,112.98h2.67v-8.52c0-2.44,1.06-4.15,3.61-4.15,2.39,0,3.12,1.01,3.12,3.51v9.14h2.75v-9.92c0-3.4-1.43-5.17-4.65-5.17-2.21,0-3.84.8-4.83,2.21l-.34-1.87h-2.34v14.77ZM158.4,93.15v-2.39h-15.71v2.39h6.41v19.81h2.96v-19.81h6.34ZM159.83,112.98h2.67v-8.52c0-2.44,1.04-4.15,3.61-4.15,2.39,0,3.12,1.01,3.12,3.51v9.14h2.75v-9.92c0-3.4-1.43-5.17-4.65-5.17-2.21,0-3.84.8-4.83,2.21v-9.32h-2.67v22.23ZM82.66,104.18h5.24v4.93c-1.61,1.4-4.05,1.95-6.02,1.95-4.93,0-7.74-3.19-7.74-8.8,0-5.95,3.01-9.24,7.69-9.24,2.78,0,4.86.99,6.83,2.86l1.74-1.97c-1.77-1.95-4.8-3.38-8.26-3.38-6.96,0-11.09,4.86-11.09,11.66s3.43,11.29,10.88,11.29c4.1,0,7.3-1.79,8.88-3.51v-8.05h-8.13v2.26h-.03ZM181.82,97.85c-4.88,0-7.45,3.38-7.45,7.82s2.54,7.63,7.11,7.63,7.37-2.99,7.37-7.71-2.62-7.74-7.04-7.74h0ZM231.05,97.85c-4.91,0-7.45,3.38-7.45,7.82s2.54,7.63,7.11,7.63,7.37-2.99,7.37-7.71c0-4.86-2.62-7.74-7.04-7.74h0Z"/>
  <g>
    <path class="cls-5" d="M37.33,93.48c3.48,1.12,6.23,3.69,8.1,7.37.26.49.39,1.22.23,1.66.05-.18.13-.34.18-.52,4.47-14.02-11.35-23.45-19.37-19.21-.16.08-.31.16-.47.26-10.31,6.13-13.79,19.4-7.92,29.81-4.21-8.02,5.19-23.83,19.24-19.37Z"/>
    <path class="cls-1" d="M28.82,102c1.12-3.48,3.69-6.23,7.37-8.1.49-.26,1.22-.39,1.66-.23-.18-.05-.34-.13-.52-.18-14.02-4.47-23.45,11.35-19.24,19.37.08.16.16.31.26.47,6.15,10.33,19.4,13.81,29.81,7.92-8,4.21-23.81-5.22-19.34-19.24Z"/>
    <path class="cls-3" d="M37.33,110.52c-3.48-1.12-6.23-3.69-8.1-7.37-.26-.49-.39-1.22-.23-1.66-.05.18-.13.34-.18.52-4.47,14.02,11.35,23.45,19.37,19.24.16-.08.31-.16.47-.26,10.33-6.15,13.81-19.4,7.92-29.81,4.18,8-5.22,23.81-19.24,19.34Z"/>
    <path class="cls-2" d="M45.85,102c-1.12,3.48-3.69,6.23-7.37,8.1-.49.26-1.22.39-1.66.23.18.05.34.13.52.18,14.02,4.47,23.45-11.35,19.21-19.37-.08-.16-.16-.31-.26-.47-6.15-10.33-19.4-13.81-29.81-7.92,8.02-4.21,23.83,5.22,19.37,19.24Z"/>
  </g>
</svg>