<?xml version="1.0" encoding="UTF-8"?>
<svg id="Layer_1" data-name="Layer 1" xmlns="http://www.w3.org/2000/svg" viewBox="0 0 268 204">
  <defs>
    <style>
      .cls-1 {
        fill: #0f5fdc;
      }
    </style>
  </defs>
  <path class="cls-1" d="M50.78,81.36v41.19h-8.91v-17.25h-14.41v17.25h-8.8v-41.19h8.8v16.37h14.36v-16.37h8.96Z"/>
  <path class="cls-1" d="M55.57,101.95c0-13.9,8.96-21.06,19.2-21.06,9.63,0,16.68,5.87,17.71,14.78h-8.6c-.57-4.27-4.32-7.16-9.16-7.16-6.18,0-10.97,4.63-10.97,13.49s4.79,13.39,10.97,13.39c4.94,0,8.7-2.88,9.37-7.1h8.19c-.67,8.75-7.72,14.72-17.5,14.72-10.4,0-19.2-7.21-19.2-21.06h0Z"/>
  <path class="cls-1" d="M136.65,89.08h-12.2v-7.62h33.21v7.57h-12.2v33.57h-8.8v-33.51h0Z"/>
  <path class="cls-1" d="M182.88,112.61c-1.18,6.38-6.8,10.5-14.11,10.5-10.09,0-15.24-7.88-15.24-15.34s4.58-15.24,14.67-15.24,14.67,7.72,14.67,14.47c0,1.13-.05,2.01-.1,2.63h-21.31c.57,4.17,3.24,6.74,7.36,6.74,3.29,0,5.46-1.29,6.13-3.81l7.93.05h0ZM161.52,104.47h13.13c-.26-3.29-2.52-5.92-6.49-5.92-3.71,0-5.92,1.8-6.64,5.92Z"/>
  <path class="cls-1" d="M186.69,107.82c0-8.65,6.13-15.29,15.29-15.29,7.77,0,13.95,4.68,14.47,11.58h-8.24c-.46-2.63-2.99-4.58-6.02-4.58-4.43,0-7,3.45-7,8.29s2.63,8.24,7.1,8.24c2.99,0,5.41-1.8,6.02-4.48h8.34c-.82,6.59-6.95,11.53-14.67,11.53-9.16,0-15.29-6.64-15.29-15.29h0Z"/>
  <path class="cls-1" d="M221.08,81.41h8.19v15.7c1.7-2.88,4.94-4.58,9.06-4.58,6.64,0,11.02,4.84,11.02,11.63v18.48h-8.19v-16.63c0-3.6-2.37-6.18-5.77-6.18-3.6,0-6.13,2.78-6.13,6.59v16.22h-8.19v-41.24Z"/>
  <path class="cls-1" d="M106.53,114.87v-33.51h-8.8v33.31c0,5.1,2.78,7.88,7.88,7.88h18.84v-7.67h-17.92Z"/>
</svg>