<?xml version="1.0" encoding="UTF-8"?>
<svg id="Layer_1" data-name="Layer 1" xmlns="http://www.w3.org/2000/svg" viewBox="0 0 268 204">
  <defs>
    <style>
      .cls-1 {
        fill: #de1e34;
        fill-rule: evenodd;
      }
    </style>
  </defs>
  <g id="g7">
    <polygon id="polygon9" class="cls-1" points="238.8 114.03 248.6 114.03 248.6 79.15 238.8 79.15 238.8 114.03 238.8 114.03"/>
    <polygon id="polygon11" class="cls-1" points="263.01 79.15 263.01 114.03 253.21 114.03 253.21 79.15 263.01 79.15 263.01 79.15"/>
    <polygon id="polygon13" class="cls-1" points="25.89 92.7 17.96 92.7 17.96 79.15 4.99 79.15 4.99 114.03 17.96 114.03 17.96 96.73 25.89 96.73 25.89 114.03 38.86 114.03 38.86 79.15 25.89 79.15 25.89 92.7 25.89 92.7"/>
    <path id="path15" class="cls-1" d="M86.79,92.12l-.79-2.31h-10.67v24.22h10.67v-14.56h0c0-3.17,2.02-4.9,3.75-4.9,1.44,0,3.31.29,3.31,3.46h0v16h10.67v-15.71h0c0-8.79-9.87-12.25-16.94-6.2h0Z"/>
    <path id="path17" class="cls-1" d="M196.35,103.87l-4.97-14.05h-7.28l-4.97,14.63-5.19-14.63h-14.27l-5.12,12.32-7.21-12.32h-12.18l14.34,24.51-1.87,4.61h0c-.65,1.44-2.2,1.51-2.51.14,0-2.48-2.01-4.48-4.49-4.48s-4.49,2.01-4.49,4.48c.02,2.6,2.61,5.98,7.73,5.77,5.12-.22,7.28-4.47,8-6.27h0l11.85-28.66,8.54,24.12h7.78l4.76-13.91,4.9,13.91h7.35l8.29-24.22h-4.25l-4.76,14.05h0Z"/>
    <path id="path19" class="cls-1" d="M57.24,88.58c-8.16,0-14.78,6.07-14.78,13.56s6.62,13.56,14.78,13.56,14.78-6.07,14.78-13.56-6.62-13.56-14.78-13.56h0ZM60.92,108.48c0,2.03-1.65,3.68-3.68,3.68s-3.67-1.65-3.67-3.68h0v-12.68h0c0-2.03,1.65-3.67,3.67-3.67s3.68,1.64,3.68,3.67h0v12.68h0Z"/>
    <path id="path21" class="cls-1" d="M136.34,104.08c.08-.57.12-1.36.12-1.95,0-7.49-6.62-13.56-14.78-13.56s-14.78,6.07-14.78,13.56,6.62,13.56,14.78,13.56c5.61,0,10.49-2.87,12.99-7.09h0l-3.26-1.21h0c-1.97,3.02-5.59,5.03-9.73,5.03-2.03,0-3.68-1.92-3.68-3.95h0v-4.39h18.34ZM118,95.8c0-2.03,1.65-3.67,3.68-3.67s3.68,1.64,3.68,3.67h0v4.83h-7.35v-4.83h0Z"/>
    <path id="path23" class="cls-1" d="M235.08,104.08c.08-.57.12-1.36.12-1.95,0-7.49-6.62-13.56-14.78-13.56s-14.78,6.07-14.78,13.56,6.62,13.56,14.78,13.56c5.61,0,10.49-2.87,12.99-7.09h0l-3.26-1.21h0c-1.97,3.02-5.59,5.03-9.73,5.03-2.03,0-3.68-1.92-3.68-3.95h0v-4.39h18.34ZM216.74,95.8c0-2.03,1.65-3.67,3.68-3.67s3.68,1.64,3.68,3.67h0v4.83h-7.35v-4.83h0Z"/>
  </g>
</svg>