<?xml version="1.0" encoding="UTF-8"?>
<svg id="Layer_1" data-name="Layer 1" xmlns="http://www.w3.org/2000/svg" viewBox="0 0 268 204">
  <defs>
    <style>
      .cls-1 {
        fill: #f58220;
      }

      .cls-2 {
        fill: #fff;
      }

      .cls-3 {
        fill: #004a80;
      }

      .cls-4 {
        fill: #b02a30;
      }
    </style>
  </defs>
  <g id="g10">
    <g id="g12">
      <path id="path14" class="cls-1" d="M29.76,89.49c10.14-10.05,22.4-12.65,27.29-5.78,4.89,6.86.61,20.66-9.53,30.71-10.14,10.05-22.39,12.64-27.28,5.78-4.89-6.87-.61-20.66,9.53-30.71"/>
      <path id="path16" class="cls-4" d="M36.47,84.13c-1.09.82-2.25,1.78-3.35,2.87-8.89,8.75-12.58,20.78-8.2,26.79,4.51,6.02,15.44,3.83,24.47-5.05,4.85-4.72,8.13-10.25,9.5-15.38.41-3.76-.14-7.11-1.85-9.64-3.89-5.33-12.23-4.92-20.57.41"/>
      <path id="path18" class="cls-2" d="M41.5,119.37c-4.75,3.56-9.65,5.33-14.43,4.59,2.01.1,3.63-2.12,4.96-5.12,1.35-3.06,2.16-5.91,2.81-8.57.94-4.21,1.01-7.22.53-7.87-.81-1.07-2.66-.79-4.74.4-1,.55-2.33.18-.76-1.72,1.59-1.92,7.91-6.54,10.18-7.26,2.49-.72,5.34.26,4.38,2.99-.68,1.99-9.42,24.92-2.92,22.54M48.65,83.81c1.18,1.18.46,3.77-1.55,5.8-2.03,2.01-4.67,2.73-5.82,1.57-1.22-1.16-.5-3.79,1.53-5.84,2.05-2.05,4.69-2.68,5.84-1.53"/>
      <path id="path20" class="cls-3" d="M58.8,123.71l5.93-21.68h7.68l-5.93,21.68h-7.68ZM90.99,109.02c.08-1.05-.16-1.84-.73-2.37-.57-.53-1.47-.79-2.69-.79-1.95,0-3.61.6-4.99,1.78-1.37,1.19-2.36,2.88-2.96,5.08-.58,2.12-.5,3.74.22,4.88.72,1.14,2.05,1.7,3.97,1.7,1.41,0,2.62-.32,3.64-.98,1.01-.65,1.8-1.61,2.34-2.87h7.95c-1.06,2.84-2.87,4.94-5.41,6.29-2.55,1.35-5.99,2.03-10.31,2.03s-7.16-.94-8.98-2.84c-1.81-1.89-2.25-4.53-1.32-7.93,1.02-3.71,3-6.58,5.96-8.59,2.96-2.01,6.67-3.02,11.12-3.02,3.87,0,6.65.64,8.35,1.92,1.69,1.28,2.29,3.18,1.77,5.7h-7.92ZM97.58,123.71l5.93-21.68h7.68l-5.93,21.68h-7.68ZM129.77,109.02c.09-1.05-.16-1.84-.73-2.37-.57-.53-1.47-.79-2.69-.79-1.95,0-3.61.6-4.99,1.78-1.38,1.19-2.36,2.88-2.96,5.08-.58,2.12-.5,3.74.22,4.88.72,1.14,2.04,1.7,3.97,1.7,1.41,0,2.62-.32,3.64-.98,1.02-.65,1.8-1.61,2.35-2.87h7.95c-1.06,2.84-2.87,4.94-5.41,6.29-2.54,1.35-5.98,2.03-10.31,2.03s-7.17-.94-8.98-2.84c-1.81-1.89-2.25-4.53-1.32-7.93,1.02-3.71,3-6.58,5.96-8.59,2.96-2.01,6.67-3.02,11.12-3.02,3.87,0,6.65.64,8.35,1.92,1.69,1.28,2.28,3.18,1.77,5.7h-7.92ZM136.37,123.71l5.93-21.68h7.68l-5.93,21.68h-7.68ZM166.4,106.43l-1.24,4.53h3.96c.97,0,1.74-.19,2.32-.57.58-.37.98-.95,1.18-1.7.21-.74.12-1.31-.26-1.69-.38-.38-1.05-.57-2-.57h-3.96ZM164.18,114.56l-1.3,4.76h4.55c1.08,0,1.95-.2,2.61-.6.66-.4,1.1-.99,1.32-1.78.21-.78.1-1.37-.33-1.77-.44-.4-1.2-.6-2.29-.6h-4.55ZM154.38,123.71l5.93-21.68h13.92c1.65,0,2.85.06,3.57.2.73.13,1.34.35,1.83.65.67.41,1.11.99,1.31,1.74.21.74.17,1.62-.1,2.63-.33,1.22-.97,2.23-1.92,3.01-.94.79-2.26,1.41-3.97,1.87,1.78.43,2.98,1.1,3.59,2.02.61.91.7,2.15.27,3.7-.53,1.92-1.52,3.37-2.97,4.37-1.46.99-3.34,1.49-5.65,1.49h-15.81ZM193.38,117.16c-2.33,0-3.96.14-4.89.44-.93.29-1.49.81-1.7,1.54-.13.5-.03.89.3,1.17.33.28.88.42,1.63.42,1.23,0,2.23-.27,2.99-.83.76-.56,1.3-1.39,1.6-2.5l.07-.24ZM192.35,121.48c-.92.87-2,1.52-3.21,1.94-1.21.42-2.6.63-4.16.63-2.23,0-3.83-.38-4.82-1.14-.99-.77-1.29-1.85-.91-3.25.52-1.91,1.93-3.29,4.23-4.13,2.3-.85,5.88-1.29,10.74-1.33l.06-.17.07-.18c.21-.78.13-1.35-.25-1.74-.38-.38-1.05-.57-2.01-.57-.87,0-1.58.14-2.13.42-.54.28-.93.7-1.18,1.26h-6.67c.49-1.68,1.65-2.92,3.49-3.74,1.83-.82,4.41-1.23,7.72-1.23s5.41.48,6.7,1.44c1.29.95,1.67,2.41,1.13,4.36l-2.11,7.7c-.13.48-.22.87-.25,1.16-.03.29-.03.57.01.82h-6.7c-.04-.36-.03-.73,0-1.09.04-.37.11-.75.22-1.14M201.22,123.71l3.44-12.58c.14-.51.24-.98.31-1.41.07-.43.11-.81.11-1.12h7.22c.03.24,0,.55-.06.93-.06.39-.18.89-.35,1.51,1.16-.95,2.33-1.66,3.5-2.11,1.18-.46,2.39-.69,3.66-.69,2.35,0,3.97.58,4.87,1.75.9,1.17,1.04,2.87.43,5.11l-2.36,8.61h-7.2l2.3-8.39c.32-1.15.32-2,0-2.53-.32-.53-.97-.79-1.97-.79-1.17,0-2.14.35-2.91,1.06-.77.71-1.35,1.77-1.74,3.19l-2.04,7.47h-7.21ZM231.66,123.71h-7.11l5.93-21.68h7.11l-3.48,12.71,7.16-6.15h8.51l-7.98,6.72,5.47,8.39h-8.99l-4.56-7.62-2.08,7.62"/>
    </g>
  </g>
</svg>