<?xml version="1.0" encoding="UTF-8"?>
<svg id="Layer_1" data-name="Layer 1" xmlns="http://www.w3.org/2000/svg" viewBox="0 0 268 204">
  <defs>
    <style>
      .cls-1 {
        fill: #0c293d;
      }

      .cls-2 {
        fill: #0c9afc;
      }
    </style>
  </defs>
  <polygon class="cls-2" points="18.06 80.84 18.06 98.3 35.55 98.3 35.55 115.99 52.88 115.99 52.88 80.84 18.06 80.84"/>
  <g>
    <path class="cls-1" d="M58.34,91.55c-1.4,0-1.4-2.19,0-2.19h2.52c.48,0,.87.38.87.84v23.6h.97c1.4,0,1.4,2.19,0,2.19h-4.21c-1.4,0-1.4-2.19,0-2.19h.97v-22.25h-1.12Z"/>
    <path class="cls-1" d="M73.91,116.15c-5.43,0-9.38-4.16-9.38-9.3s3.95-9.41,8.95-9.41,8.11,4.16,8.26,9.23c0,.64-.31,1.33-1.1,1.33h-13.89c.56,3.54,3.57,5.94,7.14,5.94,1.25,0,3.14-.31,4.26-.87.84-.41,1.33-.08,1.53.31.25.48.13,1.15-.48,1.5-1.4.84-3.7,1.27-5.28,1.27ZM66.75,105.8h12.72c-.56-3.47-2.57-6.14-6.02-6.14s-6.19,2.83-6.7,6.14Z"/>
    <path class="cls-1" d="M98.87,115.99c-.46,0-.84-.38-.84-.84v-2.24c-1.5,2.09-3.87,3.26-6.58,3.26-5.17,0-9.13-4.21-9.13-9.3s3.93-9.23,8.92-9.23,6.78,3.65,6.78,3.65v-2.78c0-.48.38-.87.84-.87h1.86c1.4,0,1.4,2.19,0,2.19h-.48v13.94h.48c1.4,0,1.4,2.19,0,2.19h-1.86v.03ZM91.33,99.83c-3.82,0-6.81,3.19-6.81,6.98s2.57,7.14,6.86,7.14c2.27.03,6.86-1.76,6.86-7.04-.03-3.7-2.88-7.09-6.91-7.09Z"/>
    <path class="cls-1" d="M119.44,115.99c-.46,0-.84-.38-.84-.84v-2.24c-1.5,2.09-3.87,3.26-6.58,3.26-5.17,0-9.13-4.21-9.13-9.3s3.93-9.23,8.92-9.23,6.78,3.65,6.78,3.65v-9.79h-.48c-1.4,0-1.4-2.17,0-2.17h1.86c.46,0,.84.38.84.87v23.55h.48c1.4,0,1.4,2.19,0,2.19h-1.86v.05ZM111.87,99.81c-3.82,0-6.76,3.21-6.81,7.04-.08,3.75,2.57,7.14,6.86,7.14,2.27.03,6.68-1.76,6.68-7.04,0-3.72-2.7-7.14-6.73-7.14Z"/>
    <path class="cls-2" d="M135.73,97.49c.54,0,1.1.28,1.1.97v4.13c-.03.56-.54.94-1.05.94-.64,0-1.1-.41-1.1-1.02,0-2.09-1.96-3.11-3.95-3.11-1.76,0-3.95.97-3.95,2.93,0,1.76,1.71,2.63,4.92,3.39,2.85.69,5.74,1.43,5.74,4.89s-3.29,5.35-6.3,5.35c-1.76,0-3.65-.69-4.64-1.86v.87c0,.69-.56.97-1.1.97s-1.05-.28-1.05-.97v-4.36c0-.64.56-1.1,1.12-1.1.69,0,1.2.48,1.2,1.15,0,2.42,2.35,3.29,4.44,3.26,1.81,0,4.16-1.22,4.16-3.31s-2.35-2.47-4.05-2.85c-4.51-.97-6.53-2.6-6.53-5.43,0-3.19,3.01-4.89,5.81-4.89,1.78,0,3.36.76,4.21,1.81v-.82c-.03-.66.48-.94,1.02-.94Z"/>
    <path class="cls-2" d="M157.55,97.64c1.4,0,1.4,2.19,0,2.19h-.48v21.16h.48c1.4,0,1.4,2.17,0,2.17h-1.86c-.46,0-.84-.38-.84-.87v-9.94s-1.89,3.65-6.78,3.65-8.92-4.21-8.92-9.23,3.95-9.3,9.13-9.3c2.7,0,5.07,1.35,6.58,3.47v-2.45c0-.46.38-.84.84-.84,0,0,1.86,0,1.86,0ZM148.17,99.65c-4.26,0-6.93,3.39-6.86,7.14.08,3.82,3.01,7.04,6.81,7.04,4.03,0,6.7-3.42,6.7-7.14.03-5.28-4.38-7.06-6.65-7.04Z"/>
    <path class="cls-2" d="M174.71,99.83c-1.4,0-1.4-2.19,0-2.19h2.06c.48,0,.87.38.87.84v15.27h.84c1.4,0,1.4,2.24,0,2.24h-2.17c-.48,0-.87-.38-.87-.87v-1.96c-1.4,2.04-3.85,2.83-6.19,2.83-5.25,0-7.83-3.42-7.83-8v-8.16h-.74c-1.4,0-1.4-2.19,0-2.19h2.06c.48,0,.87.38.87.84v9.51c0,3.36,1.78,5.81,5.63,5.81,3.47,0,6.19-1.96,6.19-6.22v-7.75h-.74Z"/>
    <path class="cls-2" d="M197.37,115.99c-.46,0-.84-.38-.84-.84v-2.24c-1.5,2.09-3.87,3.26-6.58,3.26-5.17,0-9.13-4.21-9.13-9.3s3.93-9.23,8.92-9.23,6.78,3.65,6.78,3.65v-2.78c0-.48.38-.87.84-.87h1.86c1.4,0,1.4,2.19,0,2.19h-.48v13.94h.48c1.4,0,1.4,2.19,0,2.19h-1.86v.03ZM189.82,99.83c-3.82,0-6.81,3.19-6.81,6.98s2.6,7.14,6.86,7.14c2.27.03,6.86-1.76,6.86-7.04-.03-3.7-2.88-7.09-6.91-7.09Z"/>
    <path class="cls-2" d="M205.65,115.15c0,.46-.38.84-.84.84h-1.81c-1.43,0-1.43-2.19,0-2.19h.46v-13.99h-.46c-1.43,0-1.43-2.17,0-2.17h1.81c.46,0,.84.38.84.87v2.24c1.61-2.37,3.85-3.11,6.5-3.11.59-.03,1.15.31,1.15,1.05,0,1.12-1.15,1.12-1.15,1.12h-.1c-2.83,0-6.4,1.58-6.4,5.46v9.89Z"/>
    <path class="cls-2" d="M222.07,116.15c-5.43,0-9.38-4.16-9.38-9.3s3.95-9.41,8.95-9.41,8.11,4.16,8.26,9.23c0,.64-.31,1.33-1.1,1.33h-13.92c.56,3.54,3.57,5.94,7.14,5.94,1.25,0,3.14-.31,4.26-.87.84-.41,1.33-.08,1.53.31.25.48.13,1.15-.48,1.5-1.38.84-3.7,1.27-5.25,1.27ZM214.88,105.8h12.72c-.56-3.47-2.57-6.14-6.02-6.14s-6.17,2.83-6.7,6.14Z"/>
    <path class="cls-2" d="M247.02,115.99c-.46,0-.84-.38-.84-.84v-2.24c-1.5,2.09-3.87,3.26-6.58,3.26-5.17,0-9.13-4.21-9.13-9.3s3.93-9.23,8.92-9.23,6.78,3.65,6.78,3.65v-9.79h-.48c-1.4,0-1.4-2.17,0-2.17h1.86c.46,0,.84.38.84.87v23.55h.48c1.4,0,1.4,2.19,0,2.19h-1.86v.05ZM239.48,99.81c-3.82,0-6.76,3.21-6.81,7.04-.08,3.75,2.6,7.14,6.86,7.14,2.27.03,6.68-1.76,6.68-7.04-.03-3.72-2.73-7.14-6.73-7.14Z"/>
  </g>
  <polygon class="cls-1" points="35.55 115.99 18.06 115.99 18.06 98.3 35.55 115.99"/>
</svg>