<?xml version="1.0" encoding="UTF-8"?>
<svg id="Layer_1" data-name="Layer 1" xmlns="http://www.w3.org/2000/svg" viewBox="0 0 268 204">
  <defs>
    <style>
      .cls-1 {
        fill: #c74634;
      }
    </style>
  </defs>
  <path class="cls-1" d="M40.31,126.85h28.87c13.72-.33,24.52-11.8,24.18-25.44-.33-13.3-11.04-23.93-24.18-24.26h-28.87c-13.72-.33-25.18,10.46-25.52,24.18-.33,13.72,10.46,25.1,24.18,25.44.42.08.84.08,1.34.08M68.51,118.07h-27.61c-8.87-.25-15.81-7.7-15.56-16.57.33-8.45,7.11-15.31,15.56-15.56h27.61c8.87-.25,16.32,6.69,16.57,15.56.25,8.87-6.69,16.32-15.56,16.57h-1"/>
  <path class="cls-1" d="M167.52,104.95h9.95l-5.27-8.51-9.69,15.35h-4.38l11.78-18.42c.88-1.28,2.65-1.57,3.89-.69.26.2.49.39.69.65l11.81,18.45h-4.38l-2.06-3.44h-10.08l-2.26-3.4M213.26,108.39v-16h-3.73v17.57c0,.49.2.98.56,1.31.36.36.85.56,1.37.56h16.98l2.22-3.44h-17.41M151.45,105.51c3.63,0,6.58-2.94,6.58-6.58s-2.94-6.58-6.58-6.58h-16.33v19.44h3.7v-15.97h12.37c1.73,0,3.14,1.41,3.14,3.14s-1.41,3.14-3.14,3.14h-10.54l11.16,9.69h5.43l-7.49-6.28h1.7M112.16,111.79h11.29c5.37-.13,9.59-4.61,9.46-9.95-.13-5.17-4.32-9.33-9.46-9.46h-11.29c-5.37-.13-9.85,4.09-9.98,9.46-.13,5.37,4.09,9.82,9.46,9.95.16.03.33.03.52,0M123.18,108.39h-10.8c-3.47-.1-6.18-3.01-6.09-6.48.1-3.3,2.78-5.99,6.09-6.09h10.8c3.47-.1,6.38,2.62,6.48,6.09.1,3.47-2.62,6.38-6.09,6.48h-.39M194.09,111.79h11.52l2.19-3.4h-13.45c-3.47.1-6.38-2.62-6.48-6.09s2.62-6.38,6.09-6.48h11.35l2.22-3.44h-13.42c-5.37-.13-9.82,4.09-9.95,9.46-.13,5.37,4.09,9.82,9.46,9.95.13.03.29.03.46,0M239.77,108.39c-2.81,0-5.3-1.87-6.05-4.58h15.97l2.19-3.44h-18.16c.75-2.72,3.24-4.58,6.05-4.58h10.96l2.19-3.44h-13.42c-5.37.16-9.59,4.61-9.46,9.98.13,5.17,4.29,9.33,9.46,9.46h11.52l2.19-3.4h-13.45"/>
</svg>