<?xml version="1.0" encoding="UTF-8"?>
<svg id="Layer_1" data-name="Layer 1" xmlns="http://www.w3.org/2000/svg" viewBox="0 0 268 204">
  <defs>
    <style>
      .cls-1 {
        fill: #009b4c;
        fill-rule: evenodd;
      }
    </style>
  </defs>
  <path id="Fill-11" class="cls-1" d="M45.03,77.99c-5.17-2.33-8.53-3.36-11.64-3.36-3.36,0-5.43,1.29-5.43,3.1,0,5.43,18.62,3.88,18.62,16.55,0,6.98-5.95,11.12-13.97,11.12-6.47,0-9.57-1.55-13.19-3.62v-7.76c5.17,3.36,8.53,4.66,12.41,4.66,3.36,0,5.43-1.29,5.43-3.36,0-5.95-18.62-3.88-18.62-16.81,0-6.21,5.43-10.35,13.97-10.35,4.14,0,7.76.78,12.41,2.84v6.98"/>
  <path id="Fill-12" class="cls-1" d="M71.15,103.6c-3.1,1.03-5.69,1.55-8.28,1.55-8.53,0-14.22-4.91-14.22-12.67s5.69-12.93,13.97-12.93c2.59,0,5.69.52,8.28,1.55v5.69c-2.07-1.03-4.4-1.55-6.21-1.55-4.66,0-7.5,2.84-7.5,6.98,0,4.4,2.84,7.24,7.24,7.24,1.81,0,3.62-.52,6.98-1.81v5.95"/>
  <path id="Fill-13" class="cls-1" d="M138.4,89.89c.26-3.36,2.33-5.43,5.43-5.43s4.91,2.07,5.43,5.43h-10.86ZM143.31,79.8c-7.5,0-12.93,5.43-12.93,12.93s5.69,12.67,14.22,12.67c1.81,0,6.47,0,10.86-3.36v-4.91c-3.62,2.59-5.95,3.36-9.05,3.36-4.91,0-7.76-2.59-8.02-6.72h17.59c.26-8.79-5.69-13.97-12.67-13.97h0Z"/>
  <polygon id="Fill-14" class="cls-1" points="158.83 104.89 166.59 104.89 166.59 80.32 158.83 80.32 158.83 104.89"/>
  <path id="Fill-15" class="cls-1" d="M188.05,98.17c-1.55,1.55-2.84,2.07-4.66,2.07-3.62,0-5.95-3.1-5.95-7.5,0-4.91,2.33-7.76,6.21-7.76,1.29,0,3.1.52,4.4,1.55v11.64h0ZM188.05,68.42v12.93c-2.07-1.03-4.14-1.55-6.47-1.55-6.98,0-11.9,5.17-11.9,12.67s4.91,12.67,11.38,12.67c2.59,0,4.66-.78,6.72-2.33v2.07h7.76v-36.47h-7.5Z"/>
  <path id="Fill-16" class="cls-1" d="M207.19,89.89c.26-3.36,2.33-5.43,5.43-5.43s4.91,2.07,5.43,5.43h-10.86ZM212.11,79.8c-7.5,0-12.93,5.43-12.93,12.93s5.69,12.67,14.22,12.67c1.81,0,6.47,0,10.86-3.36v-4.91c-3.62,2.59-5.95,3.36-9.05,3.36-4.91,0-7.76-2.59-8.02-6.72h17.59c.26-8.79-5.69-13.97-12.67-13.97h0Z"/>
  <path id="Fill-17" class="cls-1" d="M236.16,87.3h0c2.33-5.17,4.91-7.5,8.02-7.5,1.55,0,2.84.52,5.17,2.33l-2.07,6.72c-2.07-1.29-3.36-1.81-4.66-1.81-2.84,0-4.66,2.59-6.47,7.24v10.6h-7.76v-24.57h7.76v6.98"/>
  <path id="Fill-18" class="cls-1" d="M166.85,69.98c.78,1.81-.52,4.66-2.84,5.95-2.33,1.29-4.91,1.03-5.43-1.03-.78-1.81.52-4.66,2.84-5.95,2.33-1.29,4.91-1.03,5.43,1.03"/>
  <path id="Fill-19" class="cls-1" d="M98.83,89.11c0-6.72-4.66-9.31-9.05-9.31-3.1,0-5.43,1.29-7.76,4.14h0v-15.52h-7.76v36.21h7.76v-15.52c1.81-2.59,3.36-3.62,5.17-3.62,2.33,0,3.88,1.81,3.88,5.43v8.53c2.59-1.29,5.17-2.07,7.76-2.33v-8.02"/>
  <path id="Fill-20" class="cls-1" d="M118.22,79.8c-3.1,0-5.43,1.29-8.02,3.88v-3.62h-7.76v16.81c2.59.26,6.21,1.55,7.76,3.62v-11.38c2.07-3.1,3.36-4.14,5.43-4.14s3.88,1.55,3.88,4.91v15h7.76v-15.52c0-7.5-5.17-9.57-9.05-9.57"/>
  <polyline id="Fill-21" class="cls-1" points="131.41 111.87 122.36 111.87 122.36 118.34 131.16 118.34 131.16 120.92 122.36 120.92 122.36 127.65 131.67 127.65 131.67 130.24 119.52 130.24 119.52 109.03 131.41 109.03 131.41 111.87"/>
  <polygon id="Fill-22" class="cls-1" points="138.66 130.24 141.5 130.24 141.5 109.03 138.66 109.03 138.66 130.24"/>
  <path id="Fill-23" class="cls-1" d="M155.21,118.34c2.07,0,3.1,1.29,3.36,3.36h-6.98c.26-2.07,1.55-3.36,3.62-3.36M151.33,123.77h9.83c0-5.17-2.33-7.76-5.95-7.76-3.88,0-6.47,2.84-6.47,6.98,0,3.88,2.33,7.5,6.72,7.5,2.33,0,3.88-.52,5.69-1.55v-2.59c-1.55,1.03-3.1,1.81-4.91,1.81-2.84-.26-4.4-1.55-4.91-4.4"/>
  <path id="Fill-24" class="cls-1" d="M179,119.89c-1.55-1.03-2.59-1.29-3.88-1.29-2.59,0-4.14,1.81-4.14,4.66s1.81,4.66,4.66,4.66c1.29,0,2.33-.26,3.62-1.03v2.59c-1.03.52-2.59.78-4.14.78-4.14,0-6.98-2.84-6.98-6.98,0-4.66,2.59-7.5,6.98-7.5,1.55,0,2.59.26,4.14,1.03v3.1"/>
  <path id="Fill-25" class="cls-1" d="M191.67,116.27h4.4v2.59h-4.4v7.24c0,1.55,1.29,2.07,2.07,2.07,1.03,0,2.07-.26,3.1-1.03v2.59c-1.03.52-2.33,1.03-3.36,1.03-3.1,0-4.4-1.81-4.4-4.4v-7.24h-2.33v-.26l5.17-5.17v2.59"/>
  <path id="Fill-26" class="cls-1" d="M206.42,116.27v3.1h0c1.29-2.59,2.84-3.62,4.14-3.62,1.03,0,2.07.52,3.36,1.55l-1.55,2.33c-.78-.78-1.81-1.29-2.59-1.29-1.81,0-3.36,1.81-3.36,4.4v7.5h-2.84v-13.97h2.84"/>
  <path id="Fill-27" class="cls-1" d="M242.11,119.89c-1.55-1.03-2.59-1.29-3.88-1.29-2.59,0-4.14,1.81-4.14,4.66s1.81,4.66,4.66,4.66c1.29,0,2.33-.26,3.62-1.03v2.59c-1.03.52-2.59.78-4.14.78-4.14,0-6.98-2.84-6.98-6.98,0-4.66,2.59-7.5,6.98-7.5,1.55,0,2.59.26,4.14,1.03v3.1"/>
  <polygon id="Fill-28" class="cls-1" points="221.16 130.24 224 130.24 224 116.27 221.16 116.27 221.16 130.24"/>
  <path id="Fill-29" class="cls-1" d="M224,111.36c.26.78-.26,1.55-1.03,2.07-.78.52-1.81.26-2.07-.26-.26-.78.26-1.55,1.03-2.07,1.03-.52,1.81-.52,2.07.26"/>
  <path id="Fill-30" class="cls-1" d="M100.9,112.39c-.52,0-.78,0-.78.26,0,0,0,.26-.26.26l-2.59,9.31c-.52,3.36-4.66,6.47-9.83,6.47h-7.24l1.29-4.91h4.66c.52,0,.78-.26,1.29-.52,0-.26.26-.26.26-.52l2.07-8.28c.52-3.36,4.14-6.98,9.31-6.98h7.5l-1.03,4.4h-4.66v.52ZM102.71,118.08l.78-3.1h7.5c1.03-4.4.26-8.53-2.59-11.12-5.43-5.43-16.55-3.62-25.09,4.4-1.29,1.29-2.33,2.59-3.36,3.88h4.66l-1.03,3.1h-5.43c-.52,1.03-1.03,1.81-1.29,2.84h6.47l-1.03,3.1h-6.47c-1.03,4.66-.52,9.05,2.33,11.64,5.43,5.43,16.55,3.36,24.83-4.66,1.55-1.29,2.59-2.84,3.88-4.4h-5.95l.78-3.1h6.98c.52-1.03,1.03-1.81,1.29-2.84h-7.24v.26Z"/>
</svg>