<?xml version="1.0" encoding="UTF-8"?>
<svg id="Layer_1" data-name="Layer 1" xmlns="http://www.w3.org/2000/svg" viewBox="0 0 268 204">
  <defs>
    <style>
      .cls-1 {
        fill-rule: evenodd;
      }

      .cls-1, .cls-2 {
        fill: #2364ad;
      }
    </style>
  </defs>
  <polygon class="cls-2" points="90.92 98.16 111.61 98.16 111.61 104.18 105.59 104.18 105.59 118.59 96.94 118.59 96.94 104.18 90.92 104.18 90.92 98.16"/>
  <polygon class="cls-2" points="122.08 106.41 117.76 118.59 109.51 118.59 117.63 98.16 126.54 98.16 135.05 118.59 126.54 118.59 122.08 106.41"/>
  <polygon class="cls-2" points="132.95 98.16 153.77 98.16 153.77 104.18 147.88 104.18 147.88 118.59 139.24 118.59 139.24 104.18 132.95 104.18 132.95 98.16"/>
  <polygon class="cls-2" points="164.25 106.41 159.93 118.59 151.55 118.59 159.66 98.16 168.7 98.16 177.08 118.59 168.7 118.59 164.25 106.41"/>
  <path class="cls-2" d="M164.64,60.58c-.79-1.44-1.83-2.88-3.01-4.06-3.01-3.01-6.94-5.5-11.78-7.07-4.84-1.7-10.21-2.62-15.84-2.62s-11.13.79-15.84,2.62c-4.71,1.7-8.77,4.06-11.65,7.07-1.18,1.31-2.23,2.62-3.01,4.06,6.15-1.44,16.76-3.27,26.58-3.54.92,0,1.7.26,1.96.79.52.52.52,2.88.52,3.93l-.13,26.06c.52,0,1.05.13,1.7.13.52,0,1.18,0,1.7-.13l-.26-26.06c0-1.05-.13-3.27.39-3.93.39-.52,1.05-.79,1.96-.79,9.82.26,20.43,2.1,26.71,3.54"/>
  <path class="cls-2" d="M165.95,63.98c-9.03-1.96-15.19-2.36-21.21-2.62-5.24-.39-5.24,1.44-4.84,4.84.13.26.13.52.13.79,1.7,9.95,3.93,18.33,4.32,19.77,12.7-2.75,21.87-10.34,21.87-19.38.13-1.18,0-2.36-.26-3.4"/>
  <path class="cls-2" d="M127.98,66.21c.52-3.27.39-5.11-4.71-4.84-6.02.26-12.05.65-21.08,2.62-.26,1.05-.39,2.23-.39,3.4,0,3.8,1.7,7.59,4.84,10.87,2.88,2.88,6.94,5.37,11.65,6.94,1.7.65,3.54,1.18,5.37,1.57.39-1.44,2.62-10.08,4.32-20.17,0-.13,0-.26,0-.39"/>
  <polygon class="cls-2" points="42.08 139.01 62.9 139.01 62.9 145.04 56.88 145.04 56.88 159.44 48.23 159.44 48.23 145.04 42.08 145.04 42.08 139.01"/>
  <polygon class="cls-2" points="73.24 147.26 68.92 159.44 60.67 159.44 68.79 139.01 77.7 139.01 86.08 159.44 77.7 159.44 73.24 147.26"/>
  <polygon class="cls-2" points="84.11 139.01 104.93 139.01 104.93 145.04 98.91 145.04 98.91 159.44 90.27 159.44 90.27 145.04 84.11 145.04 84.11 139.01"/>
  <polygon class="cls-2" points="115.41 147.26 110.95 159.44 102.7 159.44 110.82 139.01 119.86 139.01 128.11 159.44 119.86 159.44 115.41 147.26"/>
  <path class="cls-1" d="M213.87,147.65h2.62c1.57,0,2.62,0,3.01-.13s.79-.39,1.05-.79c.26-.39.39-.92.39-1.57s-.13-1.18-.39-1.57c-.26-.39-.65-.65-1.05-.79-.26-.13-1.31-.13-2.75-.13h-2.75v4.98h-.13ZM210.47,159.05v-19.77h7.33c1.83,0,3.14.13,4.06.52.79.39,1.44.92,1.96,1.83.52.92.79,1.96.79,3.14,0,1.57-.39,2.75-1.18,3.8-.79.92-1.96,1.57-3.4,1.83.79.52,1.31,1.05,1.83,1.7s1.18,1.7,1.96,3.27l2.1,3.8h-4.06l-2.49-4.32c-.92-1.57-1.57-2.49-1.83-2.88-.26-.39-.65-.65-1.05-.79s-.92-.26-1.7-.26h-.65v8.25h-3.67v-.13ZM194.5,159.05v-19.77h12.7v3.4h-9.3v4.32h8.64v3.27h-8.64v5.37h9.56v3.27h-12.96v.13ZM174.33,159.05l-4.06-19.77h3.54l2.62,13.62,3.14-13.62h4.19l3.01,13.75,2.62-13.75h3.54l-4.19,19.77h-3.93l-3.4-14.8-3.4,14.8h-3.67ZM156.13,149.23c0,2.23.39,3.93,1.31,5.11s2.1,1.7,3.4,1.7,2.49-.52,3.4-1.7,1.31-2.88,1.31-5.24-.39-3.93-1.31-5.11c-.92-1.05-1.96-1.7-3.4-1.7s-2.62.52-3.4,1.7c-.92,1.18-1.31,2.88-1.31,5.24ZM152.46,149.36c0-2.36.39-4.32,1.05-5.76.79-1.57,1.7-2.62,2.88-3.4,1.18-.79,2.62-1.18,4.32-1.18,2.49,0,4.45.92,6.02,2.62,1.57,1.83,2.36,4.32,2.36,7.59s-.79,5.89-2.49,7.73c-1.44,1.7-3.4,2.49-5.89,2.49s-4.45-.79-5.89-2.49c-1.44-1.83-2.36-4.45-2.36-7.59ZM140.68,142.68v5.63h1.96c1.31,0,2.1-.13,2.62-.26.39-.13.79-.52,1.18-.92.26-.39.39-1.05.39-1.7s-.13-1.18-.39-1.7c-.26-.39-.65-.79-1.18-.92-.39-.13-1.44-.26-2.88-.26h-1.7v.13ZM137.27,159.05v-19.77h5.63c2.1,0,3.4.13,4.06.26,1.05.26,1.83.92,2.49,1.96s1.05,2.23,1.05,3.8c0,1.44-.26,2.62-.92,3.54-.52.92-1.31,1.7-2.1,2.1-.92.52-2.49.65-4.58.65h-2.23v7.46h-3.4Z"/>
</svg>