<?xml version="1.0" encoding="UTF-8"?>
<svg id="Layer_1" data-name="Layer 1" xmlns="http://www.w3.org/2000/svg" viewBox="0 0 268 204">
  <defs>
    <style>
      .cls-1 {
        fill: #183883;
      }

      .cls-2 {
        fill: #e62d38;
      }
    </style>
  </defs>
  <path class="cls-1" d="M27.36,115.51h-4.51l-1.76,6.5h21.86l1.68-6.5h-5.27l5.27-21.64h3.59l-.31,3.59h7.57l3.06-11.4H22.16l-2.98,11.4h7.87l1.61-3.67h3.9l-5.2,21.72ZM84.39,86.06h16.9l-22.55,35.95h-14.14l-1.99-29.44h-2.9l1.68-6.5h18.73l-1.68,6.5h-3.21l-.08,18.43,10.78-18.43h-3.59l2.06-6.5ZM127.73,96.69c0-3.59,1.15-6.81,2.6-10.1-6.35-1.15-13.23-1.61-19.49,0-3.52.92-7.19,3.14-9.17,6.27-2.29,3.52-1.76,8.03,1.07,11.01,1.45,1.45,3.21,2.45,5.05,3.29,1.45.69,3.98,1.76,4.36,3.44,1.07,4.28-5.81,4.67-8.49,3.82v-3.37h-7.19l-2.75,10.02c6.42,1.61,13.15,2.14,19.65.69,3.9-.92,7.42-2.91,10.01-6.04,2.14-2.68,3.36-7.65,1.07-10.55-1.3-1.61-2.75-2.83-4.51-3.82-1.68-.99-3.52-1.61-5.05-2.75-1.83-1.38-1.83-3.52.15-4.74,1.53-.99,4.05-.54,5.73-.23l.31,2.98h6.65v.08Z"/>
  <path class="cls-2" d="M226.35,86.75c-2.98-1.15-5.81-1.07-8.87-.31-2.98.76-5.12,2.45-7.49,4.28-2.37,1.84-4.89,3.67-7.64,4.89-2.83,1.22-6.04,2.52-9.1,1.3,2.22.08,4.28-.38,6.19-1.61,1.45-.92,3.97-2.83,4.51-4.59h-2.52c1.83-1.99,4.13-3.52,6.65-4.44l-1.22-1.45c3.36-2.29,7.03-3.37,11.08-3.52,1.91-.08,3.82.15,5.58.69,1.91.54,3.36,1.45,4.74,2.83l-1.91,1.91ZM177.95,94.78c-1.07,0-1.99.08-3.06.38-.99.31-1.91.69-2.9,1.07-1.83.76-3.59,1.76-5.35,2.68-.76.38-1.68.84-2.52.99-.92.15-2.14.15-2.98-.23-.92-.46-1.68-.92-2.45-1.61-.76-.69-1.53-1.38-2.29-1.91-.84-.54-1.68-.92-2.52-1.45.38,0,2.37-.08,1.83-.92-.46-.69-1.53-.99-2.37-1.15-1.91-.38-3.82-.38-5.73-.38,1.61-1.38,3.36-2.06,5.5-2.06,1.99,0,3.59.92,5.27,1.91.84.54,1.83,1.45,2.68,1.99.84.54,1.76.84,2.68,1.15,1.76.61,3.98.31,5.73-.31,1.45-.54,2.75-1.15,4.36-1.15,1.45-.23,2.83.15,4.13.99Z"/>
  <path class="cls-2" d="M162.97,110.15c3.13-.15,5.73-3.21,7.49-5.51,1.91-2.45,3.21-6.12,6.19-7.49,4.43-1.99,9.1-.31,13.15,1.84,3.82,1.91,9.17,1.61,12.99-.08,4.2-1.84,7.42-4.97,11.01-7.65,3.36-2.52,7.72-4.28,12.92-2.91l2.29-2.75.46,4.51,8.1,8.18-1.6,1.91h-5.2v-1.3c-1.53-1.07-3.13-1.84-5.05-1.61-1.99.23-4.13,1.15-3.82,3.52.23,1.61,2.52,3.06,3.67,3.9,1.61,1.07,3.29,2.06,4.97,3.14,3.44,2.14,6.73,4.51,9.94,7.04,2.98,2.37,6.04,4.82,8.33,7.8l-7.03-1.38c1.3-.92-.23-1.91-1.07-2.6-1.07-.84-2.14-1.53-3.36-2.22-2.37-1.3-4.89-1.99-7.49-2.6-4.97-1.22-11.39-1.99-15.75,1.15-.15.08-.31.23-.46.31l-2.45-2.06c-7.87,2.68-16.67,1.99-23.93-1.99-2.98,2.06-6.42,2.52-9.86,2.91-3.29.38-6.73.15-10.09-.15-8.03,6.65-18.96,10.55-29.2,7.04l6.88-1.76v1.53c7.42,0,13.61-5.2,17.97-10.71Z"/>
</svg>