<?xml version="1.0" encoding="UTF-8"?><svg id="Layer_2" xmlns="http://www.w3.org/2000/svg" viewBox="0 0 625.3 104.84"><defs><style>.cls-1{fill:#f59c2f;}.cls-2{fill:#18496b;}.cls-3{fill:#231f20;}.cls-4{fill:#1d96d4;}.cls-5{fill:#a31c45;}.cls-6{fill:#e15190;}.cls-7{fill:#036aa0;}.cls-8{fill:#4ca046;}.cls-9{fill:#e4273e;}.cls-10{fill:#c1212b;}.cls-11{fill:#bf8b2d;}.cls-12{fill:#ec6a2f;}.cls-13{fill:#3f7e45;}.cls-14{fill:#62b246;}.cls-15{fill:#e8432d;}.cls-16{fill:#2dbbe1;}.cls-17{fill:#fac315;}.cls-18{fill:#dd1768;}.cls-19{fill:#dea83a;}</style></defs><g id="Layer_1-2"><rect class="cls-3" x="252.55" y="53.21" width="5.76" height="26.2"/><path class="cls-3" d="M267.33,60.44v2.57h.07c.68-.98,1.51-1.74,2.48-2.27.97-.54,2.07-.81,3.32-.81s2.29.23,3.28.7c.99.46,1.74,1.28,2.26,2.46.56-.83,1.33-1.56,2.29-2.2.97-.64,2.11-.95,3.43-.95,1,0,1.93.12,2.79.37.86.25,1.59.64,2.2,1.17.61.54,1.09,1.24,1.43,2.11.34.87.51,1.91.51,3.14v12.7h-5.21v-10.75c0-.64-.02-1.24-.07-1.8-.05-.56-.18-1.05-.4-1.47-.22-.42-.54-.75-.97-.99-.43-.25-1.01-.37-1.74-.37s-1.33.14-1.78.42c-.45.28-.81.65-1.06,1.1-.26.45-.43.97-.51,1.54-.09.58-.13,1.16-.13,1.74v10.57h-5.21v-10.64c0-.56-.01-1.12-.04-1.67-.02-.55-.13-1.06-.31-1.52-.18-.46-.49-.84-.92-1.12-.43-.28-1.06-.42-1.89-.42-.25,0-.57.05-.97.16-.4.11-.8.32-1.17.62-.38.31-.7.75-.97,1.32-.27.58-.4,1.33-.4,2.26v11.01h-5.21v-18.97h4.92Z"/><path class="cls-3" d="M300.1,60.44v2.42h.07c.63-1.03,1.44-1.77,2.42-2.24.98-.46,2.05-.7,3.23-.7,1.49,0,2.78.28,3.85.84,1.08.56,1.97,1.31,2.68,2.24.71.93,1.24,2.01,1.58,3.25.34,1.24.51,2.53.51,3.87,0,1.27-.17,2.49-.51,3.67-.34,1.17-.86,2.21-1.56,3.12-.7.9-1.57,1.63-2.61,2.17-1.04.54-2.26.81-3.65.81-1.17,0-2.26-.24-3.25-.72-.99-.48-1.8-1.18-2.44-2.11h-.07v8.99h-5.21v-25.61h4.95ZM306.87,75.48c.57-.34,1.04-.79,1.39-1.34.35-.55.61-1.19.75-1.93.15-.73.22-1.48.22-2.24s-.08-1.5-.24-2.24c-.16-.73-.42-1.39-.79-1.96-.37-.57-.84-1.04-1.41-1.39-.58-.35-1.28-.53-2.11-.53s-1.57.18-2.15.53c-.57.35-1.04.81-1.39,1.38-.36.56-.61,1.21-.75,1.95-.15.73-.22,1.49-.22,2.27s.08,1.5.24,2.24c.16.73.42,1.38.77,1.93s.83,1,1.41,1.34c.59.34,1.3.51,2.13.51s1.57-.17,2.15-.51"/><path class="cls-3" d="M317.35,66.27c.07-1.22.38-2.24.92-3.05.54-.81,1.22-1.46,2.06-1.94.83-.49,1.77-.84,2.81-1.05,1.04-.21,2.09-.31,3.14-.31.95,0,1.92.07,2.9.2.98.14,1.87.4,2.68.79.81.39,1.47.94,1.98,1.63.51.7.77,1.62.77,2.77v9.87c0,.86.05,1.68.15,2.46.1.78.27,1.37.51,1.76h-5.28c-.1-.29-.18-.59-.24-.9-.06-.31-.1-.62-.13-.94-.83.86-1.81,1.46-2.94,1.8-1.12.34-2.27.51-3.45.51-.9,0-1.75-.11-2.53-.33-.78-.22-1.47-.56-2.06-1.03-.59-.46-1.05-1.05-1.38-1.76-.33-.71-.49-1.55-.49-2.53,0-1.08.19-1.96.57-2.66.38-.7.87-1.25,1.47-1.67.6-.42,1.28-.73,2.06-.94.77-.21,1.55-.37,2.33-.5.78-.12,1.55-.22,2.31-.29.76-.07,1.43-.18,2.02-.33.59-.15,1.05-.36,1.39-.64.34-.28.5-.69.48-1.23,0-.56-.09-1.01-.27-1.34-.18-.33-.43-.59-.74-.77-.31-.18-.66-.31-1.06-.37-.4-.06-.84-.09-1.3-.09-1.03,0-1.83.22-2.42.66-.59.44-.93,1.17-1.03,2.2h-5.21ZM329.38,70.13c-.22.2-.5.35-.83.46-.33.11-.69.2-1.06.28-.38.07-.78.13-1.19.18s-.83.11-1.25.18c-.39.07-.78.17-1.16.29-.38.12-.71.29-.99.49-.28.21-.51.47-.68.79-.17.32-.26.72-.26,1.21s.09.86.26,1.17c.17.32.4.57.7.75.29.18.64.31,1.03.39.39.07.79.11,1.21.11,1.03,0,1.82-.17,2.39-.51.56-.34.98-.75,1.25-1.23.27-.48.43-.96.49-1.45.06-.49.09-.88.09-1.17v-1.95Z"/><path class="cls-3" d="M347.33,63.85c-.83,0-1.53.19-2.09.57-.56.38-1.02.87-1.38,1.47s-.61,1.26-.75,1.98c-.15.72-.22,1.44-.22,2.15s.07,1.38.22,2.09c.15.71.39,1.35.71,1.93.33.58.78,1.05,1.34,1.41.56.37,1.25.55,2.05.55,1.25,0,2.21-.35,2.88-1.05.67-.7,1.1-1.63,1.27-2.81h5.03c-.34,2.52-1.32,4.44-2.94,5.76-1.61,1.32-3.68,1.98-6.2,1.98-1.42,0-2.72-.24-3.91-.72-1.19-.48-2.2-1.14-3.03-2-.83-.86-1.48-1.88-1.94-3.06-.46-1.19-.7-2.49-.7-3.91s.21-2.83.64-4.09c.43-1.26,1.06-2.35,1.89-3.27.83-.92,1.85-1.63,3.04-2.15,1.2-.51,2.57-.77,4.11-.77,1.12,0,2.21.15,3.25.44,1.04.29,1.97.74,2.79,1.34.82.6,1.49,1.35,2,2.24.51.89.81,1.95.88,3.17h-5.1c-.34-2.18-1.63-3.27-3.85-3.27"/><path class="cls-3" d="M370.3,60.44v3.49h-3.82v9.39c0,.88.15,1.47.44,1.76.29.29.88.44,1.76.44.29,0,.57-.01.84-.04.27-.02.53-.06.77-.11v4.04c-.44.07-.93.12-1.47.15s-1.06.04-1.58.04c-.81,0-1.57-.05-2.29-.17-.72-.11-1.36-.32-1.91-.64-.55-.32-.98-.77-1.3-1.36-.32-.59-.48-1.36-.48-2.31v-11.19h-3.16v-3.49h3.16v-5.69h5.21v5.69h3.82Z"/><path class="cls-3" d="M395.47,53.21c1.17,0,2.23.19,3.17.57.94.38,1.75.9,2.42,1.56.67.66,1.19,1.43,1.54,2.29.35.87.53,1.8.53,2.81,0,1.54-.32,2.87-.97,4-.65,1.12-1.71,1.98-3.17,2.57v.07c.71.2,1.3.5,1.76.9.46.4.84.88,1.14,1.43.29.55.51,1.16.64,1.82.13.66.23,1.32.28,1.98.02.42.05.91.07,1.47.02.56.07,1.14.13,1.73.06.59.16,1.14.29,1.67s.34.97.61,1.34h-5.76c-.32-.83-.51-1.82-.59-2.97-.07-1.15-.18-2.25-.33-3.3-.2-1.37-.61-2.37-1.25-3.01-.64-.64-1.68-.95-3.12-.95h-5.76v10.24h-5.76v-26.2h14.13ZM393.42,65.06c1.32,0,2.31-.29,2.97-.88.66-.59.99-1.54.99-2.86s-.33-2.2-.99-2.77c-.66-.58-1.65-.86-2.97-.86h-6.31v7.38h6.31Z"/><path class="cls-3" d="M407.07,66.27c.07-1.22.38-2.24.92-3.05.54-.81,1.22-1.46,2.06-1.94.83-.49,1.77-.84,2.81-1.05,1.04-.21,2.09-.31,3.14-.31.95,0,1.92.07,2.9.2.98.14,1.87.4,2.68.79.81.39,1.47.94,1.98,1.63.51.7.77,1.62.77,2.77v9.87c0,.86.05,1.68.15,2.46.1.78.27,1.37.51,1.76h-5.28c-.1-.29-.18-.59-.24-.9-.06-.31-.1-.62-.13-.94-.83.86-1.81,1.46-2.94,1.8-1.13.34-2.28.51-3.45.51-.9,0-1.75-.11-2.53-.33-.78-.22-1.47-.56-2.06-1.03-.59-.46-1.04-1.05-1.38-1.76-.33-.71-.49-1.55-.49-2.53,0-1.08.19-1.96.57-2.66.38-.7.87-1.25,1.47-1.67.6-.42,1.28-.73,2.05-.94s1.55-.37,2.33-.5c.78-.12,1.55-.22,2.31-.29.76-.07,1.43-.18,2.02-.33.59-.15,1.05-.36,1.39-.64.34-.28.5-.69.48-1.23,0-.56-.09-1.01-.28-1.34-.18-.33-.43-.59-.73-.77-.31-.18-.66-.31-1.06-.37-.4-.06-.84-.09-1.3-.09-1.03,0-1.83.22-2.42.66-.59.44-.93,1.17-1.03,2.2h-5.21ZM419.1,70.13c-.22.2-.5.35-.83.46-.33.11-.68.2-1.06.28-.38.07-.78.13-1.19.18-.42.05-.83.11-1.25.18-.39.07-.78.17-1.16.29-.38.12-.71.29-.99.49-.28.21-.51.47-.68.79-.17.32-.26.72-.26,1.21s.09.86.26,1.17c.17.32.4.57.7.75.29.18.64.31,1.03.39.39.07.79.11,1.21.11,1.03,0,1.82-.17,2.39-.51.56-.34.98-.75,1.25-1.23.27-.48.44-.96.5-1.45.06-.49.09-.88.09-1.17v-1.95Z"/><path class="cls-3" d="M433.3,60.44v2.64h.11c.66-1.1,1.52-1.9,2.57-2.4,1.05-.5,2.13-.75,3.23-.75,1.39,0,2.54.19,3.43.57.89.38,1.6.91,2.11,1.58.51.67.88,1.49,1.08,2.46.21.97.31,2.04.31,3.21v11.67h-5.21v-10.71c0-1.57-.25-2.73-.73-3.5-.49-.77-1.36-1.16-2.61-1.16-1.42,0-2.45.42-3.08,1.26-.64.84-.95,2.23-.95,4.17v9.94h-5.21v-18.97h4.95Z"/><polygon class="cls-3" points="455.8 53.21 455.8 67.26 462.36 60.44 468.53 60.44 461.37 67.41 469.34 79.41 463.02 79.41 457.81 70.93 455.8 72.88 455.8 79.41 450.59 79.41 450.59 53.21 455.8 53.21"/><path class="cls-3" d="M472.05,53.21h5.21v4.29h-5.21v-4.29ZM477.26,79.41h-5.21v-18.97h5.21v18.97Z"/><path class="cls-3" d="M485.96,60.44v2.64h.11c.66-1.1,1.52-1.9,2.57-2.4,1.05-.5,2.13-.75,3.23-.75,1.39,0,2.54.19,3.43.57.89.38,1.6.91,2.11,1.58.51.67.87,1.49,1.08,2.46.21.97.31,2.04.31,3.21v11.67h-5.21v-10.71c0-1.57-.25-2.73-.73-3.5-.49-.77-1.36-1.16-2.61-1.16-1.42,0-2.45.42-3.08,1.26-.64.84-.95,2.23-.95,4.17v9.94h-5.21v-18.97h4.95Z"/><path class="cls-3" d="M520.69,80.8c-.21.98-.66,1.89-1.34,2.73-.69.84-1.68,1.56-2.97,2.15-1.3.59-3.03.88-5.21.88-.93,0-1.88-.12-2.84-.35-.97-.23-1.85-.59-2.64-1.08-.8-.49-1.46-1.12-1.98-1.89s-.83-1.69-.9-2.77h5.17c.24.98.72,1.66,1.43,2.04.71.38,1.53.57,2.46.57,1.47,0,2.54-.44,3.21-1.32.67-.88,1-1.99.97-3.34v-2.49h-.07c-.56,1-1.36,1.74-2.4,2.22-1.04.48-2.13.72-3.28.72-1.42,0-2.64-.25-3.67-.75-1.03-.5-1.87-1.19-2.53-2.06-.66-.87-1.14-1.88-1.45-3.04-.31-1.16-.46-2.39-.46-3.69,0-1.22.18-2.4.53-3.54.35-1.14.87-2.14,1.56-3.01.68-.87,1.54-1.56,2.55-2.07,1.02-.51,2.18-.77,3.5-.77,1.25,0,2.34.23,3.28.7.94.46,1.73,1.25,2.37,2.35h.07v-2.53h4.95v17.76c0,.76-.1,1.63-.31,2.61M513.55,74.49c.56-.29,1.03-.68,1.39-1.17.37-.49.64-1.05.83-1.67.18-.62.28-1.28.28-1.96,0-.78-.07-1.52-.22-2.22-.15-.7-.39-1.32-.73-1.85-.34-.54-.79-.97-1.36-1.28-.56-.32-1.27-.48-2.13-.48-.73,0-1.36.15-1.89.44-.53.29-.97.69-1.32,1.19-.36.5-.61,1.08-.77,1.72-.16.65-.24,1.33-.24,2.04s.07,1.36.2,2.04c.13.67.37,1.28.7,1.82.33.54.76.98,1.3,1.32.54.34,1.21.51,2.02.51.73,0,1.38-.15,1.95-.44"/><path class="cls-3" d="M529.57,74.69c.23.4.53.73.9.99.37.26.79.45,1.27.57.48.12.97.18,1.49.18.37,0,.75-.04,1.16-.13.4-.09.77-.22,1.1-.4.33-.18.61-.43.83-.73.22-.31.33-.69.33-1.16,0-.78-.52-1.37-1.56-1.76-1.04-.39-2.49-.78-4.35-1.17-.76-.17-1.5-.37-2.22-.61-.72-.23-1.37-.54-1.93-.92-.56-.38-1.02-.86-1.36-1.43-.34-.57-.51-1.28-.51-2.11,0-1.22.24-2.23.72-3.01.48-.78,1.11-1.4,1.89-1.85.78-.45,1.66-.77,2.64-.95.98-.18,1.98-.28,3.01-.28s2.02.1,2.99.29c.97.2,1.83.53,2.59.99.76.46,1.39,1.08,1.89,1.85.5.77.8,1.74.9,2.92h-4.95c-.07-1-.45-1.68-1.14-2.04-.68-.35-1.49-.53-2.42-.53-.29,0-.61.02-.95.06-.34.04-.65.12-.93.24-.28.12-.52.3-.72.53s-.29.54-.29.94c0,.46.17.84.51,1.14.34.29.79.53,1.34.72.55.18,1.18.35,1.89.5.71.15,1.43.31,2.17.48.76.17,1.5.38,2.22.62.72.25,1.36.57,1.93.97.56.4,1.01.91,1.36,1.5.34.6.51,1.34.51,2.22,0,1.25-.25,2.29-.75,3.14-.5.84-1.16,1.52-1.96,2.04-.81.51-1.73.87-2.77,1.08-1.04.21-2.1.31-3.17.31s-2.18-.11-3.23-.33c-1.05-.22-1.99-.59-2.81-1.1-.82-.51-1.49-1.19-2.02-2.04-.53-.84-.81-1.9-.86-3.17h4.95c0,.56.12,1.05.35,1.45"/><polygon class="cls-3" points="250.07 25.62 250.07 23.52 265.03 23.52 265.03 25.62 258.79 25.62 258.79 42.23 256.3 42.23 256.3 25.62 250.07 25.62"/><path class="cls-3" d="M266.61,23.52h2.23v2.73h-2.23v-2.73ZM268.83,42.23h-2.23v-13.55h2.23v13.55Z"/><path class="cls-3" d="M273.47,28.68v1.99h.05c1.01-1.54,2.47-2.31,4.38-2.31.84,0,1.6.18,2.28.52.68.35,1.16.94,1.44,1.78.45-.73,1.05-1.3,1.8-1.7.74-.4,1.56-.6,2.45-.6.68,0,1.3.08,1.85.22s1.02.38,1.42.69.7.72.92,1.22c.22.5.33,1.1.33,1.79v9.93h-2.23v-8.89c0-.42-.04-.81-.1-1.18-.07-.37-.2-.69-.39-.96-.19-.27-.46-.49-.8-.64-.34-.16-.78-.24-1.32-.24-1.1,0-1.97.31-2.59.94-.63.63-.94,1.47-.94,2.52v8.44h-2.23v-8.89c0-.44-.04-.84-.12-1.21-.08-.37-.21-.68-.41-.96-.19-.27-.45-.48-.77-.63-.32-.15-.74-.22-1.25-.22-.65,0-1.2.13-1.66.39-.46.26-.84.58-1.13.94-.29.37-.5.75-.63,1.14-.13.39-.2.72-.2.98v8.44h-2.23v-13.55h2.1Z"/><path class="cls-3" d="M302.67,41.37c-1.01.77-2.29,1.15-3.83,1.15-1.08,0-2.02-.17-2.82-.52-.8-.35-1.46-.84-2-1.47-.54-.63-.95-1.38-1.22-2.25-.27-.87-.42-1.83-.46-2.86,0-1.03.16-1.97.47-2.83.31-.86.76-1.6,1.32-2.23s1.24-1.12,2.02-1.47c.78-.35,1.63-.52,2.56-.52,1.21,0,2.21.25,3,.75.8.5,1.43,1.13,1.91,1.9.48.77.81,1.61,1,2.52.18.91.26,1.77.22,2.59h-10.14c-.02.59.05,1.16.21,1.69.16.53.41,1,.76,1.41.35.41.79.74,1.34.98.54.24,1.18.37,1.91.37.94,0,1.72-.22,2.32-.66.6-.44,1-1.1,1.19-1.99h2.2c-.3,1.52-.95,2.67-1.97,3.43M302.13,32.67c-.2-.47-.47-.88-.81-1.22-.34-.34-.74-.61-1.21-.81-.46-.2-.97-.3-1.53-.3s-1.1.1-1.56.3c-.46.2-.86.48-1.19.83-.33.35-.59.76-.79,1.22-.19.46-.31.96-.34,1.48h7.78c-.04-.52-.15-1.02-.35-1.49"/><path class="cls-3" d="M308.72,39.21c.21.34.49.61.83.81.34.2.72.35,1.15.43.43.09.87.13,1.32.13.35,0,.72-.03,1.1-.08.38-.05.74-.15,1.06-.29.32-.14.59-.34.8-.62.21-.27.31-.62.31-1.04,0-.58-.22-1.01-.66-1.31-.44-.3-.98-.54-1.64-.72-.65-.18-1.37-.35-2.14-.5-.77-.15-1.48-.36-2.14-.63-.66-.27-1.2-.65-1.64-1.14-.44-.49-.66-1.17-.66-2.04,0-.68.15-1.27.46-1.76.31-.49.7-.89,1.18-1.19s1.02-.53,1.63-.68c.6-.15,1.2-.22,1.79-.22.77,0,1.48.07,2.12.2.65.13,1.22.36,1.72.68.5.32.89.76,1.19,1.31.3.55.47,1.24.52,2.06h-2.23c-.04-.44-.15-.8-.34-1.09-.19-.29-.44-.52-.73-.7-.3-.17-.63-.3-.98-.38-.36-.08-.72-.12-1.09-.12-.33,0-.67.03-1.01.08-.34.05-.65.14-.93.27-.28.13-.51.31-.68.52-.18.22-.26.5-.26.85,0,.38.13.7.41.96.27.25.62.46,1.03.63s.89.31,1.42.42c.52.11,1.05.23,1.57.35.56.12,1.11.27,1.64.45.53.17,1.01.41,1.42.69.41.29.74.65,1,1.09.25.44.38.98.38,1.63,0,.82-.17,1.5-.51,2.04-.34.54-.79.98-1.34,1.31-.55.33-1.17.56-1.86.69-.69.13-1.38.2-2.06.2-.75,0-1.47-.08-2.15-.23-.68-.16-1.28-.42-1.81-.77-.52-.36-.94-.83-1.26-1.42-.31-.59-.49-1.3-.52-2.14h2.23c.02.49.13.9.34,1.24"/><polygon class="cls-3" points="328.7 23.52 328.7 31.57 338.55 31.57 338.55 23.52 341.04 23.52 341.04 42.23 338.55 42.23 338.55 33.66 328.7 33.66 328.7 42.23 326.21 42.23 326.21 23.52 328.7 23.52"/><path class="cls-3" d="M344.11,23.52h2.23v2.73h-2.23v-2.73ZM346.34,42.23h-2.23v-13.55h2.23v13.55Z"/><path class="cls-3" d="M359.57,46.06c-1.01,1.1-2.6,1.65-4.77,1.65-.63,0-1.27-.07-1.93-.21-.66-.14-1.25-.37-1.78-.68-.53-.31-.97-.73-1.32-1.23-.35-.51-.54-1.13-.58-1.86h2.23c.02.4.14.74.38,1.02.24.28.52.51.86.68.34.17.71.3,1.11.38.4.08.79.12,1.15.12.74,0,1.35-.13,1.86-.38.51-.25.93-.6,1.26-1.05.33-.45.57-.98.72-1.61.15-.63.22-1.32.22-2.07v-.89h-.05c-.39.84-.97,1.45-1.74,1.85-.78.39-1.6.59-2.48.59-1.01,0-1.9-.18-2.65-.55-.75-.37-1.38-.86-1.89-1.48-.51-.62-.89-1.34-1.14-2.18-.25-.83-.38-1.71-.38-2.63,0-.8.11-1.63.32-2.48.21-.85.56-1.62,1.05-2.31.49-.69,1.14-1.26,1.94-1.7.8-.45,1.79-.67,2.96-.67.86,0,1.64.19,2.36.56.72.38,1.28.94,1.68,1.69h.03v-1.94h2.1v12.4c0,2.22-.51,3.88-1.52,4.98M356.73,39.97c.52-.31.93-.71,1.24-1.21.32-.5.55-1.06.7-1.69.15-.63.22-1.26.22-1.89,0-.59-.07-1.18-.21-1.76-.14-.58-.36-1.1-.67-1.56-.31-.46-.7-.83-1.19-1.11-.49-.28-1.08-.42-1.78-.42s-1.33.14-1.83.41c-.51.27-.92.63-1.25,1.09-.32.45-.56.98-.71,1.57-.15.59-.22,1.21-.22,1.86,0,.61.06,1.22.18,1.83.12.61.33,1.17.63,1.66.3.5.69.9,1.18,1.21.49.31,1.1.46,1.83.46s1.36-.15,1.87-.46"/><path class="cls-3" d="M366.28,23.52v7.16h.05c.17-.42.42-.77.73-1.06.31-.29.67-.52,1.06-.71s.8-.32,1.23-.41c.43-.09.84-.13,1.25-.13.89,0,1.63.12,2.23.37.59.24,1.07.59,1.44,1.02.37.44.62.96.77,1.56.15.6.22,1.27.22,2v8.91h-2.23v-9.17c0-.84-.25-1.5-.73-1.99-.49-.49-1.16-.73-2.02-.73-.68,0-1.27.1-1.77.31-.5.21-.91.51-1.24.89-.33.39-.58.84-.75,1.35-.17.52-.25,1.08-.25,1.69v7.65h-2.23v-18.71h2.23Z"/><path class="cls-3" d="M387.83,41.37c-1.01.77-2.29,1.15-3.83,1.15-1.08,0-2.02-.17-2.82-.52-.8-.35-1.46-.84-2.01-1.47-.54-.63-.95-1.38-1.22-2.25-.27-.87-.42-1.83-.46-2.86,0-1.03.16-1.97.47-2.83.31-.86.76-1.6,1.32-2.23.57-.63,1.24-1.12,2.02-1.47.78-.35,1.63-.52,2.56-.52,1.2,0,2.21.25,3,.75.8.5,1.43,1.13,1.91,1.9.48.77.81,1.61,1,2.52.18.91.26,1.77.22,2.59h-10.14c-.02.59.05,1.16.21,1.69.16.53.41,1,.76,1.41.35.41.79.74,1.34.98.54.24,1.18.37,1.91.37.94,0,1.72-.22,2.32-.66.6-.44,1-1.1,1.19-1.99h2.2c-.3,1.52-.95,2.67-1.97,3.43M387.29,32.67c-.2-.47-.47-.88-.81-1.22-.34-.34-.74-.61-1.21-.81-.46-.2-.97-.3-1.53-.3s-1.1.1-1.56.3c-.46.2-.86.48-1.19.83-.33.35-.59.76-.79,1.22-.19.46-.31.96-.34,1.48h7.79c-.04-.52-.15-1.02-.35-1.49"/><path class="cls-3" d="M393.93,28.68v2.86h.05c.54-1.1,1.21-1.91,1.99-2.44.79-.52,1.78-.77,2.99-.73v2.36c-.89,0-1.65.12-2.28.37-.63.24-1.14.6-1.52,1.07-.39.47-.66,1.04-.84,1.72-.17.67-.26,1.45-.26,2.32v6.03h-2.23v-13.55h2.1Z"/><polygon class="cls-3" points="419.65 23.52 419.65 25.62 409.21 25.62 409.21 31.57 418.94 31.57 418.94 33.66 409.21 33.66 409.21 40.14 419.73 40.14 419.73 42.23 406.72 42.23 406.72 23.52 419.65 23.52"/><path class="cls-3" d="M431.86,42.23v-1.83h-.05c-.37.75-.94,1.29-1.73,1.63-.79.33-1.65.5-2.59.5-1.05,0-1.96-.19-2.74-.58-.78-.39-1.42-.9-1.94-1.55-.52-.65-.9-1.4-1.17-2.25-.26-.86-.39-1.77-.39-2.73s.13-1.87.38-2.73c.25-.86.64-1.6,1.15-2.24.52-.64,1.16-1.14,1.94-1.52.78-.38,1.68-.56,2.71-.56.35,0,.72.04,1.13.1.4.07.8.19,1.21.35.4.17.78.38,1.14.66.36.27.66.61.9,1.01h.05v-6.97h2.23v18.71h-2.23ZM423.85,37.42c.17.6.42,1.14.76,1.61.34.47.78.85,1.31,1.13.53.28,1.16.42,1.87.42s1.39-.15,1.91-.45c.52-.3.95-.68,1.28-1.17.33-.48.57-1.03.72-1.64.15-.61.22-1.23.22-1.86,0-.66-.08-1.31-.24-1.93s-.41-1.17-.75-1.64c-.34-.47-.78-.85-1.32-1.14-.54-.29-1.2-.43-1.97-.43s-1.39.15-1.91.45c-.52.3-.94.69-1.26,1.18-.31.49-.54,1.05-.68,1.68-.14.63-.21,1.28-.21,1.94,0,.63.08,1.25.25,1.85"/><path class="cls-3" d="M445.86,42.23v-2.15h-.05c-.47.84-1.07,1.45-1.81,1.85-.73.39-1.6.59-2.59.59-.89,0-1.63-.12-2.23-.35-.59-.24-1.07-.57-1.44-1.01s-.62-.96-.77-1.56c-.15-.6-.22-1.27-.22-2.01v-8.91h2.23v9.17c0,.84.24,1.5.73,1.99.49.49,1.16.73,2.02.73.68,0,1.27-.1,1.77-.31.5-.21.91-.51,1.25-.89.33-.38.58-.83.75-1.35.17-.52.25-1.08.25-1.69v-7.65h2.23v13.55h-2.1Z"/><path class="cls-3" d="M459.01,31.04c-.56-.47-1.31-.71-2.25-.71-.8,0-1.48.15-2.02.45-.54.3-.97.69-1.3,1.18-.32.49-.55,1.05-.69,1.69-.14.64-.21,1.3-.21,1.98,0,.63.07,1.24.22,1.83.15.59.38,1.12.7,1.59.31.46.72.84,1.23,1.11.51.28,1.11.42,1.81.42,1.1,0,1.96-.29,2.58-.86.62-.58,1-1.39,1.14-2.44h2.28c-.25,1.68-.87,2.97-1.87,3.88s-2.37,1.36-4.1,1.36c-1.03,0-1.94-.17-2.74-.5-.79-.33-1.46-.8-1.99-1.42-.53-.61-.94-1.34-1.21-2.19-.27-.85-.41-1.78-.41-2.79s.13-1.96.39-2.84c.26-.88.66-1.65,1.19-2.31.53-.66,1.2-1.17,2-1.55.8-.37,1.74-.56,2.8-.56.77,0,1.49.09,2.16.28.67.18,1.27.47,1.78.85.52.38.94.87,1.27,1.46.33.58.54,1.28.63,2.08h-2.31c-.18-.86-.54-1.52-1.1-1.99"/><path class="cls-3" d="M476.73,42.18c-.39.23-.92.35-1.6.35-.58,0-1.04-.16-1.38-.49-.34-.32-.51-.85-.51-1.59-.61.73-1.32,1.26-2.14,1.59-.81.32-1.69.49-2.63.49-.61,0-1.19-.07-1.74-.21-.55-.14-1.03-.36-1.43-.66-.4-.3-.72-.69-.96-1.17-.24-.48-.35-1.06-.35-1.74,0-.77.13-1.4.39-1.89.26-.49.61-.89,1.04-1.19.43-.31.92-.54,1.47-.69.55-.16,1.11-.29,1.69-.39.61-.12,1.19-.21,1.74-.28.55-.06,1.04-.15,1.46-.26.42-.11.75-.28,1-.5.24-.22.37-.54.37-.96,0-.49-.09-.88-.28-1.18-.18-.3-.42-.52-.71-.68s-.61-.26-.97-.31c-.36-.05-.71-.08-1.06-.08-.94,0-1.73.18-2.36.54-.63.36-.97,1.03-1.02,2.03h-2.23c.03-.84.21-1.55.52-2.12.31-.58.73-1.04,1.26-1.4.52-.36,1.12-.62,1.79-.77.67-.16,1.39-.24,2.16-.24.61,0,1.22.04,1.82.13.6.09,1.15.27,1.64.54.49.27.88.65,1.18,1.14.3.49.45,1.12.45,1.91v6.96c0,.52.03.91.09,1.15.06.24.27.37.62.37.19,0,.42-.04.68-.13v1.75ZM473.12,35.21c-.28.21-.65.36-1.1.46-.45.1-.93.18-1.43.24-.5.06-1,.13-1.51.21-.51.08-.96.21-1.36.38-.4.17-.73.42-.98.75-.25.32-.38.76-.38,1.32,0,.37.07.68.22.93.15.25.34.46.58.62.23.16.51.27.83.34.31.07.65.1,1,.1.73,0,1.36-.1,1.89-.3.52-.2.95-.45,1.28-.76.33-.31.58-.64.73-1,.16-.36.24-.69.24-1.01v-2.28Z"/><path class="cls-3" d="M484.33,28.68v1.97h-2.7v8.41c0,.26.02.47.07.63.04.16.13.28.25.37.12.09.29.14.51.17.22.03.5.04.85.04h1.02v1.97h-1.7c-.58,0-1.07-.04-1.48-.12-.41-.08-.74-.22-1-.43-.25-.21-.44-.51-.56-.89-.12-.38-.18-.89-.18-1.52v-8.62h-2.31v-1.97h2.31v-4.06h2.23v4.06h2.7Z"/><path class="cls-3" d="M486.54,23.52h2.23v2.73h-2.23v-2.73ZM488.76,42.23h-2.23v-13.55h2.23v13.55Z"/><path class="cls-3" d="M491.38,32.68c.28-.86.7-1.62,1.26-2.25.56-.64,1.25-1.14,2.07-1.51.82-.37,1.76-.55,2.83-.55s2.03.18,2.84.55c.81.37,1.5.87,2.06,1.51.56.64.98,1.39,1.26,2.25.28.86.42,1.8.42,2.79s-.14,1.92-.42,2.78c-.28.86-.7,1.6-1.26,2.24-.56.64-1.25,1.14-2.06,1.49-.81.36-1.76.54-2.84.54s-2.01-.18-2.83-.54c-.82-.36-1.51-.86-2.07-1.49-.56-.64-.98-1.38-1.26-2.24-.28-.86-.42-1.78-.42-2.78s.14-1.93.42-2.79M493.65,37.66c.22.64.52,1.17.9,1.6.38.43.83.76,1.35.98.52.23,1.06.34,1.64.34s1.12-.11,1.64-.34c.52-.23.97-.55,1.35-.98.38-.43.68-.96.9-1.6.22-.64.33-1.37.33-2.19s-.11-1.55-.33-2.19c-.22-.64-.52-1.17-.9-1.61-.39-.44-.83-.77-1.35-1-.52-.23-1.06-.34-1.64-.34s-1.12.11-1.64.34c-.52.23-.97.56-1.35,1-.39.44-.69.97-.9,1.61s-.33,1.37-.33,2.19.11,1.55.33,2.19"/><path class="cls-3" d="M508.31,28.68v2.15h.05c.93-1.64,2.39-2.46,4.4-2.46.89,0,1.63.12,2.23.37.59.24,1.07.59,1.44,1.02.37.44.62.96.77,1.56.15.6.22,1.27.22,2.01v8.91h-2.23v-9.17c0-.84-.25-1.5-.73-1.99-.49-.49-1.16-.73-2.02-.73-.68,0-1.27.1-1.77.31-.5.21-.91.51-1.24.89-.33.38-.58.84-.75,1.35-.17.52-.25,1.08-.25,1.69v7.65h-2.23v-13.55h2.1Z"/><rect class="cls-3" x="126.88" width="104.84" height="104.84" rx="20.97" ry="20.97"/><polygon class="cls-12" points="197.55 72.08 197.51 47.6 192.57 44.75 192.56 60.1 192.56 60.1 192.57 66.05 192.57 66.05 192.57 69.21 171.46 81.42 171.45 87.17 197.55 72.08"/><polygon class="cls-1" points="171.45 87.17 171.45 87.17 171.46 81.42 171.46 81.42 142.36 64.64 142.34 40.18 145.2 38.52 145.2 32.78 137.36 37.31 137.38 67.53 171.45 87.17"/><polygon class="cls-18" points="153.09 28.22 153.12 58.44 174.3 70.66 179.28 67.77 165.98 60.1 165.98 60.1 161 57.23 161 57.23 158.08 55.55 158.06 31.09 153.1 28.22 153.09 28.22"/><polygon class="cls-6" points="174.12 16.06 153.1 28.22 158.06 31.09 187.14 14.28 208.34 26.5 208.34 29.86 213.31 32.73 213.31 23.62 187.13 8.54 179.25 13.09 174.12 16.06"/><polygon class="cls-13" points="171.39 78.09 192.57 65.84 192.56 60.1 179.29 67.78 174.25 70.69 171.4 72.34 150.19 60.11 145.23 63 171.39 78.09"/><polygon class="cls-11" points="205.43 46.4 184.24 34.19 179.25 37.07 192.57 44.74 192.57 44.75 197.73 47.71 197.73 47.72 200.47 49.3 200.48 73.75 200.48 73.76 205.45 76.62 205.43 46.4"/><polygon class="cls-9" points="213.31 32.73 208.35 29.86 187.15 17.65 187.14 23.4 216.24 40.17 221.21 37.28 213.31 32.73"/><polygon class="cls-15" points="216.24 40.17 216.26 64.63 213.34 66.32 213.35 72.06 221.23 67.5 221.21 37.28 216.24 40.17"/><polygon class="cls-4" points="213.35 81.17 213.35 72.06 213.35 72.06 213.34 66.16 213.34 66.16 213.32 41.84 208.35 44.73 208.37 78.31 213.35 81.17"/><polygon class="cls-16" points="208.37 78.31 187.2 90.55 184.22 88.84 179.23 91.72 187.19 96.31 213.35 81.18 208.37 78.31"/><path class="cls-2" d="M187.15,32.51v-5.75s0,0,0,0c-7.05,4.08-14.14,8.18-21.19,12.26v5.72s13.29-7.67,13.29-7.67h.02s4.97-2.88,4.97-2.88h0l2.9-1.68h0Z"/><polygon class="cls-7" points="187.16 26.76 187.15 32.51 208.35 44.73 213.32 41.84 187.16 26.76"/><polygon class="cls-5" points="165.97 44.85 165.97 39.01 165.97 39.02 165.96 35.64 165.96 35.64 160.99 32.78 161 57.23 165.98 60.1 165.97 44.85 165.97 44.85"/><polygon class="cls-10" points="160.99 32.77 160.99 32.78 165.96 35.64 165.96 35.64 187.14 23.4 187.15 17.64 160.99 32.77"/><polygon class="cls-19" points="205.45 76.62 200.48 73.75 171.41 90.49 171.41 96.24 179.3 91.68 184.28 88.8 205.45 76.62"/><polygon class="cls-17" points="171.41 90.49 171.41 90.49 150.21 78.27 150.2 74.93 145.23 72.06 145.23 81.16 171.4 96.24 171.41 90.49"/><polygon class="cls-14" points="171.36 8.55 145.19 23.68 145.19 23.68 150.17 26.54 171.34 14.29 174.26 15.98 179.24 13.09 171.36 8.55"/><polygon class="cls-8" points="145.19 23.68 145.21 32.66 145.21 38.53 145.21 38.53 145.23 63 150.19 60.11 150.17 26.54 145.19 23.68"/><path class="cls-3" d="M.11,8.23h9.36l13.47,35.66h.16V8.23h7.99v57.53h-8.23L8.26,26.47h-.16v39.3H.11V8.23Z"/><path class="cls-3" d="M38.35,54.22v-19.69c0-8.07,5.89-12.43,12.91-12.43s12.91,3.95,12.91,12.1v19.85c0,8.55-5.81,12.51-12.91,12.51-7.5,0-12.91-4.03-12.91-12.35ZM55.7,54.63v-20.58c0-2.74-1.45-5-4.52-5s-4.36,2.34-4.36,5.08v20.49c0,2.74,1.29,5.08,4.52,5.08,3.39,0,4.36-2.5,4.36-5.08Z"/><path class="cls-3" d="M70.71,54.71h8.15v11.05h-8.15v-11.05Z"/><path class="cls-3" d="M89.83,17.11l-4.44,1.13-1.13-6.54,9.04-3.55h5v57.61h-8.47V17.11Z"/><path class="cls-3" d="M0,70.9h4.4v28.02H0v-28.02Z"/><path class="cls-3" d="M8.37,70.9h4.56l6.56,17.37h.08v-17.37h3.89v28.02h-4.01l-7.11-19.14h-.08v19.14h-3.89v-28.02Z"/><path class="cls-3" d="M33.13,70.9h4.4v28.02h-4.4v-28.02Z"/><path class="cls-3" d="M41.5,70.9h4.56l6.56,17.37h.08v-17.37h3.89v28.02h-4.01l-7.11-19.14h-.08v19.14h-3.89v-28.02Z"/><path class="cls-3" d="M60.56,70.9h7.35c3.97,0,7.07,2.04,7.07,6.33v14.97c0,4.56-3.1,6.72-7.11,6.72h-7.31v-28.02ZM67.48,95.15c2.28,0,3.07-1.65,3.07-3.14v-14.35c0-1.69-.94-3.03-3.07-3.03h-2.55v20.52h2.55Z"/><path class="cls-3" d="M78.64,70.9h4.4v28.02h-4.4v-28.02Z"/><path class="cls-3" d="M91.65,70.82h5.97l5.5,28.1h-4.4l-1.41-7.31h-5.93l-1.34,7.31h-4.09l5.7-28.1ZM96.6,88.03l-2.16-12.22h-.12l-2.24,12.22h4.52Z"/><path class="cls-3" d="M557.71,79.06v-2.97l7.64-7.21c.6-.55,1.05-1.03,1.34-1.46.29-.42.49-.82.58-1.19.09-.37.14-.71.14-1.03,0-.77-.26-1.38-.79-1.81-.53-.43-1.32-.65-2.38-.65-.85,0-1.62.17-2.32.51-.7.34-1.29.84-1.78,1.5l-3.31-2.15c.74-1.13,1.78-2.03,3.14-2.69,1.36-.66,2.92-.99,4.69-.99,1.47,0,2.76.24,3.87.71,1.11.47,1.97,1.15,2.59,2.02.61.88.92,1.92.92,3.13,0,.62-.09,1.25-.27,1.89-.18.64-.5,1.31-.98,2.01-.47.7-1.17,1.48-2.09,2.35l-6.33,5.94-.88-1.64h11.2v3.73h-14.99Z"/><path class="cls-3" d="M583.05,79.4c-1.62,0-3.07-.4-4.34-1.2-1.27-.8-2.28-1.96-3.03-3.48-.74-1.52-1.12-3.37-1.12-5.56s.37-4.04,1.12-5.56c.74-1.52,1.75-2.68,3.03-3.48,1.27-.8,2.72-1.2,4.34-1.2s3.1.4,4.37,1.2c1.27.8,2.28,1.96,3.03,3.48.74,1.52,1.12,3.37,1.12,5.56s-.37,4.04-1.12,5.56c-.74,1.52-1.75,2.68-3.03,3.48-1.27.8-2.73,1.2-4.37,1.2ZM583.05,75.55c.77,0,1.45-.22,2.02-.66.57-.44,1.03-1.14,1.36-2.08.33-.94.49-2.16.49-3.65s-.17-2.71-.49-3.65c-.33-.94-.78-1.64-1.36-2.08-.58-.44-1.25-.66-2.02-.66s-1.4.22-1.98.66c-.58.44-1.05,1.14-1.39,2.08-.34.94-.51,2.16-.51,3.65s.17,2.71.51,3.65c.34.94.8,1.64,1.39,2.08.58.44,1.24.66,1.98.66Z"/><path class="cls-3" d="M593.49,79.06v-2.97l7.64-7.21c.6-.55,1.05-1.03,1.34-1.46.29-.42.49-.82.58-1.19.09-.37.14-.71.14-1.03,0-.77-.26-1.38-.79-1.81-.53-.43-1.32-.65-2.38-.65-.85,0-1.62.17-2.32.51-.7.34-1.29.84-1.78,1.5l-3.31-2.15c.74-1.13,1.78-2.03,3.14-2.69,1.36-.66,2.92-.99,4.69-.99,1.47,0,2.76.24,3.87.71,1.11.47,1.97,1.15,2.59,2.02.61.88.92,1.92.92,3.13,0,.62-.09,1.25-.27,1.89-.18.64-.5,1.31-.98,2.01-.47.7-1.17,1.48-2.09,2.35l-6.33,5.94-.88-1.64h11.2v3.73h-14.99Z"/><path class="cls-3" d="M617.07,79.4c-1.38,0-2.74-.18-4.09-.55-1.35-.37-2.5-.9-3.46-1.6l1.81-3.48c.74.55,1.6.99,2.59,1.32.99.33,2,.49,3.04.49,1.15,0,2.06-.23,2.73-.69.67-.46,1-1.1,1-1.91,0-.53-.14-.98-.41-1.36-.27-.38-.74-.67-1.41-.89-.67-.22-1.61-.33-2.81-.33h-5.03l.99-11.14h12.1v3.68h-10.46l2.38-2.09-.74,7.95-2.35-2.06h4.19c1.96,0,3.54.26,4.72.79,1.19.53,2.06,1.26,2.62,2.19.56.93.83,1.98.83,3.15s-.29,2.22-.88,3.22c-.58,1-1.48,1.8-2.7,2.4-1.22.6-2.77.9-4.65.9Z"/></g></svg>