<svg width="330" height="69" viewBox="0 0 330 69" fill="none" xmlns="http://www.w3.org/2000/svg">
<mask id="mask0_0_825" style="mask-type:luminance" maskUnits="userSpaceOnUse" x="0" y="0" width="329" height="69">
<path d="M328.379 0.922852H0.31311V68.9229H328.379V0.922852Z" fill="white"/>
</mask>
<g mask="url(#mask0_0_825)">
<path d="M81.8382 54.6804H6.00708V65.3039H81.8382V54.6804Z" fill="#4A4B4C"/>
<path d="M6.24109 7.52148H13.4326L21.7318 36.4125V7.52148H28.1122V50.546H21.2326L12.6214 23.0122V50.546H6.24109V7.52148Z" fill="#58595B"/>
<path d="M33.1509 48.3153C32.1762 47.3256 31.4157 46.146 30.9165 44.8497C30.4173 43.5535 30.1902 42.1684 30.2493 40.7806V30.9526C30.1896 29.5671 30.4164 28.1842 30.9157 26.8903C31.415 25.5965 32.1759 24.4197 33.1509 23.4335C34.1504 22.47 35.3347 21.719 36.6323 21.2256C37.93 20.7323 39.3141 20.5069 40.7012 20.5631C42.0907 20.5075 43.477 20.7331 44.7771 21.2264C46.0772 21.7196 47.2643 22.4703 48.2672 23.4335C49.2363 24.4232 49.9924 25.601 50.4888 26.8942C50.9851 28.1874 51.2112 29.5686 51.1532 30.9526V40.7806C51.2115 42.1669 50.9856 43.5506 50.4893 44.8464C49.993 46.1421 49.2368 47.3227 48.2672 48.3153C47.2635 49.2764 46.0759 50.0248 44.7757 50.5153C43.4756 51.0059 42.0897 51.2286 40.7012 51.1701C39.3151 51.2292 37.9314 51.0067 36.6337 50.516C35.336 50.0254 34.1512 49.2767 33.1509 48.3153ZM43.5872 43.9161C44.3305 43.053 44.7057 41.9329 44.6324 40.7962V30.9682C44.7007 29.8322 44.3261 28.7139 43.5872 27.8482C43.2116 27.4704 42.7602 27.1764 42.2628 26.9855C41.7654 26.7946 41.2332 26.7112 40.7012 26.7406C40.1694 26.7122 39.6375 26.7961 39.1402 26.9869C38.643 27.1777 38.1915 27.4712 37.8153 27.8482C37.0764 28.7139 36.7018 29.8322 36.7701 30.9682V40.7962C36.6968 41.9329 37.072 43.053 37.8153 43.9161C38.1915 44.2932 38.643 44.5866 39.1402 44.7775C39.6375 44.9683 40.1694 45.0522 40.7012 45.0237C41.2332 45.0532 41.7654 44.9698 42.2628 44.7789C42.7602 44.588 43.2116 44.294 43.5872 43.9161Z" fill="#58595B"/>
<path d="M51.6368 46.6777H55.5524V50.5465H51.6368V46.6777Z" fill="#58595B"/>
<path d="M61.5583 16.4295H54.086V11.8431C56.1776 11.7663 58.2273 11.2339 60.092 10.2831C61.5271 9.55973 62.7239 8.43878 63.5395 7.05396H68.1415V50.5465H61.5583V16.4295Z" fill="#58595B"/>
<path d="M70.6531 50.4064V48.6748H82.041V50.4064H70.6531Z" fill="#58595B"/>
<path d="M70.6531 46.8021V44.8989L78.3126 42.6994H70.6687V41.0146H82.0566V42.8242L74.7715 45.1017H82.0566V46.8021H70.6531Z" fill="#58595B"/>
<path d="M70.6531 34.4786V32.7626H82.041V34.4786H70.6531Z" fill="#58595B"/>
<path d="M70.6531 30.8754V29.0034L78.2971 26.8195H70.6531V25.0879H82.041V26.913L74.7559 29.1906H82.041V30.8754H70.6531Z" fill="#58595B"/>
<path d="M70.6531 23.1999V20.5011C70.63 20.1393 70.6845 19.7768 70.8129 19.4379C70.9414 19.0989 71.1408 18.7913 71.3979 18.5357C71.6549 18.2802 71.9636 18.0825 72.3033 17.956C72.643 17.8295 73.0059 17.7771 73.3675 17.8023H79.3266C79.6867 17.7862 80.0463 17.8429 80.3841 17.9688C80.7218 18.0948 81.0306 18.2875 81.2922 18.5355C81.5445 18.7947 81.7411 19.1029 81.8698 19.4409C81.9986 19.7789 82.0569 20.1397 82.041 20.5011V23.1999H70.6531ZM80.403 20.5947C80.4159 20.4534 80.3989 20.3109 80.3532 20.1765C80.3075 20.0422 80.2342 19.9189 80.1378 19.8147C80.0333 19.7179 79.9104 19.6432 79.7764 19.5949C79.6424 19.5467 79.5 19.5259 79.3578 19.5339H73.3363C73.1941 19.5259 73.0517 19.5467 72.9177 19.5949C72.7837 19.6432 72.6608 19.7179 72.5563 19.8147C72.4572 19.9176 72.3809 20.0403 72.3325 20.1747C72.2841 20.3091 72.2647 20.4522 72.2755 20.5947V21.4839H80.403V20.5947Z" fill="#58595B"/>
<path d="M70.6531 16.0862V14.3702H82.041V16.0862H70.6531Z" fill="#58595B"/>
<path d="M79.5138 9.08153V10.9379L82.041 11.3123V13.0283L70.6531 11.1407V8.83193L82.041 6.94434V8.72273L79.5138 9.08153ZM77.8603 9.31552L73.1023 10.0019L77.8603 10.7039V9.31552Z" fill="#58595B"/>
<path d="M153.629 7.05396H157.56L160.165 17.5215H160.212L163.628 7.05396H166.967L170.352 17.8023H170.399L173.144 7.05396H176.795L172.021 23.3715H168.808L165.22 12.0771H165.173L161.569 23.3715H158.48L153.629 7.05396Z" fill="#231F20"/>
<path d="M186.342 6.63275C187.498 6.55749 188.657 6.72613 189.744 7.12773C190.831 7.52933 191.822 8.15491 192.651 8.96391C193.481 9.77291 194.131 10.7473 194.56 11.8238C194.989 12.9003 195.186 14.0549 195.14 15.2127C195.045 17.4841 194.075 19.6307 192.434 21.2041C190.793 22.7775 188.608 23.6559 186.334 23.6559C184.061 23.6559 181.875 22.7775 180.234 21.2041C178.593 19.6307 177.624 17.4841 177.528 15.2127C177.482 14.0535 177.68 12.8975 178.109 11.8198C178.539 10.7422 179.191 9.76702 180.022 8.95777C180.853 8.14852 181.846 7.52329 182.935 7.12272C184.023 6.72215 185.184 6.55521 186.342 6.63275ZM186.342 20.4699C187.03 20.491 187.714 20.368 188.351 20.1088C188.988 19.8495 189.564 19.4598 190.042 18.9646C190.519 18.4695 190.888 17.8798 191.124 17.2337C191.36 16.5875 191.458 15.8991 191.412 15.2127C191.45 14.5222 191.347 13.8312 191.109 13.1818C190.871 12.5325 190.504 11.9384 190.028 11.4361C189.553 10.9337 188.98 10.5336 188.345 10.2601C187.71 9.98662 187.026 9.84557 186.334 9.84557C185.643 9.84557 184.958 9.98662 184.323 10.2601C183.688 10.5336 183.115 10.9337 182.64 11.4361C182.165 11.9384 181.797 12.5325 181.559 13.1818C181.321 13.8312 181.218 14.5222 181.256 15.2127C181.21 15.9004 181.309 16.5902 181.546 17.2375C181.783 17.8848 182.153 18.4752 182.632 18.9706C183.111 19.466 183.689 19.8554 184.328 20.1136C184.967 20.3719 185.653 20.4932 186.342 20.4699Z" fill="#231F20"/>
<path d="M197.589 7.05396H203.829C207.168 7.05396 210.069 8.20835 210.069 12.0147C210.161 13.0752 209.846 14.1308 209.189 14.9679C208.531 15.8049 207.58 16.3609 206.528 16.5231L210.693 23.4183H206.372L202.956 16.8975H201.177V23.4183H197.589V7.05396ZM201.177 13.8087H203.299C204.625 13.8087 206.325 13.8087 206.325 11.9835C206.325 10.1583 204.859 10.0959 203.533 10.0959H201.177V13.8087Z" fill="#231F20"/>
<path d="M212.675 7.05396H216.263V20.0643H222.924V23.3715H212.675V7.05396Z" fill="#231F20"/>
<path d="M224.952 7.05396H230.349C235.622 7.05396 240.021 9.28474 240.021 15.2595C240.021 20.5479 235.7 23.3715 230.833 23.3715H224.952V7.05396ZM228.555 20.0487H230.427C233.766 20.0487 236.277 18.7851 236.277 15.0723C236.277 11.8743 233.719 10.3923 230.677 10.3923H228.555V20.0487Z" fill="#231F20"/>
<path d="M169.104 37.3962C169.104 39.2208 168.379 40.9706 167.089 42.2608C165.799 43.5509 164.049 44.2757 162.224 44.2757C160.4 44.2757 158.65 43.5509 157.36 42.2608C156.07 40.9706 155.345 39.2208 155.345 37.3962V27.4434H158.933V37.2714C158.933 38.1444 159.28 38.9816 159.897 39.5989C160.514 40.2162 161.351 40.563 162.224 40.563C163.097 40.563 163.935 40.2162 164.552 39.5989C165.169 38.9816 165.516 38.1444 165.516 37.2714V27.4434H169.104V37.3962Z" fill="#231F20"/>
<path d="M172.427 27.3652H177.325L184.267 38.722H184.314V27.3652H187.902V43.6983H183.206L176.077 32.0764H176.03V43.6983H172.427V27.3652Z" fill="#231F20"/>
<path d="M194.781 27.3652H191.178V43.6983H194.781V27.3652Z" fill="#231F20"/>
<path d="M196.435 27.3652H200.538L204.578 38.0668H204.625L208.728 27.3652H212.581L205.842 43.6983H202.956L196.435 27.3652Z" fill="#231F20"/>
<path d="M214.422 27.3652H225.513V30.688H218.025V33.73H225.092V37.0528H218.025V40.3756H225.934V43.6983H214.422V27.3652Z" fill="#231F20"/>
<path d="M228.805 27.4434H235.123C238.477 27.4434 241.285 28.5978 241.285 32.4042C241.345 33.4436 241.018 34.4682 240.367 35.2806C239.716 36.093 238.787 36.6355 237.759 36.8034L241.909 43.6986H237.603L234.187 37.1778H232.408V43.6986H228.805V27.4434ZM232.408 34.1982H234.53C235.84 34.1982 237.556 34.1982 237.556 32.3886C237.556 30.579 235.996 30.4854 234.764 30.4854H232.408V34.1982Z" fill="#231F20"/>
<path d="M251.815 31.3586C251.481 31.0058 251.076 30.7275 250.627 30.542C250.178 30.3565 249.695 30.268 249.21 30.2822C248.196 30.2822 246.792 30.7346 246.792 31.9514C246.792 34.931 254.311 33.0122 254.311 38.7374C254.311 42.3877 251.378 44.1193 248.071 44.1193C246.042 44.1734 244.072 43.4347 242.58 42.0602L245.138 39.2522C245.506 39.7313 245.978 40.1206 246.519 40.3908C247.059 40.661 247.654 40.8051 248.258 40.8122C249.428 40.8122 250.738 40.2506 250.738 39.0962C250.738 36.101 243.094 37.7234 243.094 32.279C243.094 28.7846 246.121 26.975 249.334 26.975C251.156 26.9081 252.938 27.5133 254.342 28.6754L251.815 31.3586Z" fill="#231F20"/>
<path d="M260.551 27.3652H256.947V43.6983H260.551V27.3652Z" fill="#231F20"/>
<path d="M266.978 30.5476H262.313V27.3652H275.23V30.5476H270.566V43.6983H266.978V30.5476Z" fill="#231F20"/>
<path d="M281.065 36.7252L274.934 27.3652H279.395L282.859 33.4804L286.525 27.3652H290.799L284.668 36.7252V43.6983H281.065V36.7252Z" fill="#231F20"/>
<path d="M155.345 47.7229H161.663C165.001 47.7229 167.825 48.8773 167.825 52.6837C167.881 53.7245 167.55 54.7493 166.897 55.5613C166.243 56.3733 165.312 56.9151 164.284 57.0829L168.449 63.978H164.112L160.696 57.4417H158.917V63.978H155.329L155.345 47.7229ZM158.933 54.4777H160.992C162.318 54.4777 164.018 54.4777 164.018 52.6525C164.018 50.8273 162.458 50.7649 161.226 50.7649H158.87L158.933 54.4777Z" fill="#231F20"/>
<path d="M175.656 47.7229H178.636L185.734 64.056H181.678L180.274 60.5929H173.924L172.567 64.056H168.605L175.656 47.7229ZM177.044 52.4029L175.032 57.5197H179.026L177.044 52.4029Z" fill="#231F20"/>
<path d="M187.372 47.6914H192.254L199.212 59.0326H199.243V47.6914H202.847V64.0245H198.135L191.022 52.387H190.975V64.0245H187.372V47.6914Z" fill="#231F20"/>
<path d="M206.294 47.6914H209.898V54.4774L216.247 47.6914H220.943L213.689 55.273L221.567 64.0245H216.543L209.898 56.2714V64.0245H206.294V47.6914Z" fill="#231F20"/>
<path d="M226.371 47.6914H222.768V64.0245H226.371V47.6914Z" fill="#231F20"/>
<path d="M229.632 47.6914H234.53L241.472 59.0326H241.519V47.6914H245.122V64.0245H240.411L233.282 52.387H233.235V64.0245H229.632V47.6914Z" fill="#231F20"/>
<path d="M263.218 62.8707C261.096 63.9384 258.745 64.4738 256.37 64.4307C255.212 64.5083 254.051 64.3413 252.963 63.9408C251.874 63.5402 250.881 62.915 250.05 62.1057C249.219 61.2965 248.567 60.3213 248.137 59.2437C247.708 58.166 247.51 57.01 247.556 55.8508C247.51 54.6915 247.708 53.5355 248.137 52.4579C248.567 51.3802 249.219 50.4051 250.05 49.5959C250.881 48.7866 251.874 48.1614 252.963 47.7608C254.051 47.3602 255.212 47.1933 256.37 47.2708C258.728 47.1163 261.055 47.8698 262.875 49.3768L260.332 52.138C259.827 51.6028 259.21 51.1855 258.525 50.9158C257.84 50.6462 257.104 50.5309 256.37 50.578C255.681 50.5546 254.995 50.676 254.356 50.9343C253.717 51.1925 253.139 51.5819 252.66 52.0773C252.181 52.5727 251.81 53.1631 251.574 53.8104C251.337 54.4577 251.238 55.1475 251.284 55.8352C251.238 56.5229 251.337 57.2127 251.574 57.8599C251.81 58.5072 252.181 59.0976 252.66 59.593C253.139 60.0884 253.717 60.4778 254.356 60.7361C254.995 60.9944 255.681 61.1157 256.37 61.0924C257.546 61.1081 258.709 60.8349 259.755 60.2968V57.6448H256.822V54.3376H263.218V62.8707Z" fill="#231F20"/>
<path d="M274.45 51.6856C274.115 51.3287 273.709 51.0469 273.257 50.8587C272.805 50.6705 272.319 50.5801 271.829 50.5936C270.815 50.5936 269.411 51.0616 269.411 52.2784C269.411 55.258 276.931 53.3392 276.931 59.0644C276.931 62.6991 274.013 64.4307 270.691 64.4307C268.664 64.489 266.695 63.756 265.199 62.3871L267.758 59.5636C268.126 60.0427 268.598 60.432 269.139 60.7022C269.679 60.9724 270.274 61.1165 270.878 61.1235C272.048 61.1235 273.374 60.5776 273.374 59.4232C273.374 56.428 265.714 58.0348 265.714 52.5904C265.714 49.1116 268.741 47.2864 271.954 47.2864C273.778 47.2179 275.563 47.8295 276.962 49.0024L274.45 51.6856Z" fill="#231F20"/>
<path d="M317.256 7.16309C318.377 7.16706 319.45 7.61063 320.247 8.39835C321.043 9.18607 321.499 10.255 321.515 11.375V19.3778C321.515 19.4558 321.515 19.5338 321.515 19.6274V23.6366H242.954V7.16309H317.256Z" fill="#FCB131"/>
<path d="M317.256 64.0565C318.382 64.0525 319.46 63.6046 320.258 62.8102C321.055 62.0157 321.507 60.9389 321.515 59.8134V51.795C321.515 51.795 321.515 51.639 321.515 51.561V47.5518H280.487V64.0565H317.256Z" fill="#FCB131"/>
<path d="M321.515 27.4902H293.154V43.9949H321.515V27.4902Z" fill="#FCB131"/>
<path d="M150.821 10.6735V59.9224C150.821 60.4283 150.721 60.9292 150.526 61.396C150.331 61.8627 150.045 62.2862 149.685 62.6417C149.325 62.9972 148.898 63.2777 148.429 63.467C147.96 63.6563 147.458 63.7506 146.952 63.7444H93.9125C93.4106 63.7444 92.9136 63.6456 92.4499 63.4535C91.9862 63.2614 91.5649 62.9799 91.21 62.625C90.8551 62.2701 90.5736 61.8488 90.3815 61.3851C90.1894 60.9214 90.0906 60.4244 90.0906 59.9224V10.6735C90.0906 10.1716 90.1894 9.67464 90.3815 9.21093C90.5736 8.74723 90.8551 8.3259 91.21 7.97099C91.5649 7.61609 91.9862 7.33457 92.4499 7.14249C92.9136 6.95042 93.4106 6.85156 93.9125 6.85156H146.952C147.966 6.85156 148.938 7.25424 149.655 7.97099C150.371 8.68775 150.774 9.65989 150.774 10.6735" fill="#E6B134"/>
<path d="M93.9126 63.7445H146.952C147.454 63.7445 147.951 63.6457 148.415 63.4536C148.878 63.2615 149.3 62.98 149.655 62.6251C150.01 62.2702 150.291 61.8489 150.483 61.3852C150.675 60.9215 150.774 60.4245 150.774 59.9226V20.174C140.158 16.9615 128.857 16.7643 118.136 19.6046C107.414 22.4448 97.693 28.2106 90.0594 36.2575V59.9226C90.0594 60.4271 90.1592 60.9267 90.3533 61.3924C90.5473 61.8582 90.8316 62.2809 91.1898 62.6362C91.548 62.9915 91.9731 63.2724 92.4404 63.4626C92.9077 63.6528 93.408 63.7487 93.9126 63.7445Z" fill="#FCB131"/>
<path d="M114.551 37.7234C112.797 38.3184 110.959 38.624 109.107 38.6282C98.9357 38.6282 95.0669 31.0934 95.0669 24.8535C95.0669 19.1907 99.1229 11.4219 109.294 11.4219C117.578 11.4219 123.334 16.4607 123.334 24.5727C123.327 26.8209 122.776 29.0341 121.727 31.0228C120.679 33.0115 119.164 34.7165 117.312 35.9918L124.285 39.5642C131.602 43.3082 136.219 43.6981 138.575 43.6981C140.886 43.7016 143.18 43.2895 145.345 42.4814C145.511 42.4077 145.683 42.3502 145.86 42.3098C145.902 42.3075 145.943 42.314 145.982 42.3289C146.021 42.3438 146.056 42.3667 146.086 42.3961C146.115 42.4256 146.138 42.4609 146.153 42.4997C146.168 42.5386 146.174 42.5802 146.172 42.6218C146.172 42.8246 146.001 42.9338 145.767 43.043C142.365 44.7111 138.635 45.601 134.847 45.6481C129.605 45.6481 125.923 44.2597 120.167 40.9682L114.707 37.7702L114.551 37.7234ZM118.56 25.5555C118.56 17.1627 113.366 13.0755 108.576 13.0755C104.021 13.0755 99.9653 15.9927 99.9653 23.9955C99.9653 31.9982 104.957 36.8342 110.542 36.8342C113.319 36.8342 118.56 35.6174 118.56 25.4463" fill="white"/>
<path d="M129.137 37.7229C128.575 37.4889 128.466 37.3173 128.466 36.5529C128.466 34.6341 128.607 32.5593 128.653 31.9977C128.7 31.4361 128.778 31.0929 129.059 31.0929C129.34 31.0929 129.418 31.4049 129.418 31.6857C129.469 32.2916 129.595 32.8889 129.792 33.4641C130.092 34.5311 130.75 35.4618 131.657 36.0987C132.564 36.7355 133.663 37.0392 134.769 36.9585C135.338 37.0231 135.915 36.9708 136.463 36.8048C137.012 36.6388 137.521 36.3627 137.959 35.9932C138.397 35.6237 138.755 35.1687 139.011 34.6561C139.267 34.1434 139.416 33.5839 139.449 33.0117C139.449 31.3113 138.918 29.6733 136.048 27.4581L134.488 26.2102C130.681 23.215 129.355 20.797 129.355 17.989C129.355 14.167 132.475 11.4214 137.374 11.4214C138.954 11.3939 140.53 11.5936 142.054 12.0142C142.366 12.0142 142.537 12.1858 142.537 12.4354C142.537 12.685 142.397 13.8862 142.397 16.6006C142.397 17.365 142.288 17.6302 142.023 17.6302C141.757 17.6302 141.664 17.4274 141.664 17.0062C141.601 16.1754 141.291 15.3822 140.775 14.7286C140.333 14.152 139.756 13.6935 139.095 13.3941C138.433 13.0947 137.708 12.9636 136.984 13.0126C136.471 12.944 135.949 12.9854 135.453 13.1339C134.957 13.2824 134.498 13.5347 134.107 13.874C133.716 14.2133 133.402 14.6319 133.185 15.102C132.968 15.5721 132.854 16.0829 132.85 16.6006C132.85 18.1606 133.645 19.4086 136.531 21.5926L137.499 22.3258C141.664 25.555 143.193 27.8793 143.193 31.1709C143.213 32.3724 142.923 33.5588 142.352 34.6161C141.781 35.6734 140.948 36.566 139.932 37.2081C138.267 38.2039 136.349 38.6969 134.41 38.6277C132.679 38.702 130.953 38.393 129.355 37.7229" fill="white"/>
<path d="M145.923 57.5041C145.923 58.1593 134.597 58.6897 120.635 58.6897C106.673 58.6897 95.3477 58.1593 95.3477 57.5041C95.3477 56.8489 106.673 56.3185 120.635 56.3185C134.597 56.3185 145.923 56.8489 145.923 57.5041Z" fill="#868686"/>
<path d="M291.875 53.4796C291.875 56.9896 287.929 58.2532 287.913 60.9207V61.1081H291.751V62.2935H286.634V61.2952C286.634 57.5357 290.581 56.8025 290.581 53.4953C290.581 52.2941 290.175 51.67 289.223 51.67C288.272 51.67 287.851 52.3408 287.851 53.3704V54.4156H286.634V53.4953C286.634 51.7169 287.461 50.5312 289.255 50.5312C291.049 50.5312 291.875 51.7012 291.875 53.4796Z" fill="#231F20"/>
<path d="M292.64 53.4641C292.64 51.6857 293.529 50.5312 295.307 50.5312C297.086 50.5312 297.99 51.6857 297.99 53.4641V59.4701C297.99 61.2484 297.101 62.4027 295.307 62.4027C293.513 62.4027 292.64 61.2484 292.64 59.4701V53.4641ZM293.919 59.548C293.919 60.5933 294.371 61.2327 295.307 61.2327C296.243 61.2327 296.68 60.5933 296.68 59.548V53.3861C296.68 52.3253 296.259 51.7012 295.307 51.7012C294.356 51.7012 293.919 52.3253 293.919 53.3861V59.548Z" fill="#231F20"/>
<path d="M304.121 53.4796C304.121 56.9896 300.174 58.2532 300.159 60.9207V61.1081H303.981V62.2935H298.88V61.2952C298.88 57.5357 302.826 56.8025 302.826 53.4953C302.826 52.2941 302.421 51.67 301.454 51.67C300.486 51.67 300.096 52.3408 300.096 53.3704V54.4156H298.88V53.4953C298.88 51.7169 299.691 50.5312 301.485 50.5312C303.279 50.5312 304.121 51.7012 304.121 53.4796Z" fill="#231F20"/>
<path d="M304.886 53.4641C304.886 51.6857 305.759 50.5312 307.553 50.5312C309.347 50.5312 310.221 51.6857 310.221 53.4641V59.4701C310.221 61.2484 309.347 62.4027 307.553 62.4027C305.759 62.4027 304.886 61.2484 304.886 59.4701V53.4641ZM306.165 59.548C306.165 60.5933 306.617 61.2327 307.553 61.2327C308.489 61.2327 308.926 60.5933 308.926 59.548V53.3861C308.926 52.3253 308.489 51.7012 307.553 51.7012C306.617 51.7012 306.165 52.3253 306.165 53.3861V59.548Z" fill="#231F20"/>
<path d="M8.90869 56.8486H9.89148V62.4177H8.90869V56.8486Z" fill="white"/>
<path d="M10.7026 56.8486H11.7166L12.949 60.0622V56.8486H13.8226V62.4177H12.9646L11.5918 58.8454V62.4177H10.7026V56.8486Z" fill="white"/>
<path d="M15.4918 57.691H14.431V56.8486H17.551V57.691H16.5058V62.3709H15.4918V57.691Z" fill="white"/>
<path d="M18.1126 56.8486H20.671V57.691H19.033V59.1262H20.281V59.9685H19.033V61.5285H20.593V62.3709H18.1126V56.8486Z" fill="white"/>
<path d="M21.373 56.8486H22.933C23.8534 56.8486 24.3838 57.3634 24.3838 58.4086C24.4161 58.6909 24.3707 58.9767 24.2525 59.2352C24.1343 59.4936 23.9477 59.7148 23.713 59.875L24.4462 62.3553H23.4322L22.777 60.2026H22.3558V62.4645H21.373V56.8486ZM22.8082 59.4226C23.1514 59.4226 23.3542 59.1574 23.3542 58.549C23.3542 57.9406 23.1826 57.6754 22.7926 57.6754H22.3558V59.4226H22.8082Z" fill="white"/>
<path d="M25.0857 56.8486H26.0997L27.3321 60.0622V56.8486H28.2057V62.4177H27.3165L25.9593 58.8454V62.4177H25.0857V56.8486Z" fill="white"/>
<path d="M29.9529 56.833H31.2945L32.3709 62.4177H31.3881L31.1229 61.0605H29.9529L29.7033 62.4177H28.7829L29.9529 56.833ZM30.9669 60.2649L30.5769 57.9562L30.1557 60.2025L30.9669 60.2649Z" fill="white"/>
<path d="M33.4941 57.691H32.4489V56.8486H35.5689V57.691H34.5237V62.3709H33.5253L33.4941 57.691Z" fill="white"/>
<path d="M36.1929 56.8486H37.1757V62.4177H36.1929V56.8486Z" fill="white"/>
<path d="M37.8621 61.0292V58.2369C37.84 58.0266 37.8652 57.814 37.9358 57.6147C38.0064 57.4154 38.1206 57.2344 38.2701 57.0849C38.4196 56.9354 38.6006 56.8212 38.7999 56.7506C38.9992 56.68 39.2118 56.6548 39.4221 56.6769C39.6236 56.6515 39.8283 56.6706 40.0217 56.733C40.215 56.7953 40.3924 56.8993 40.5411 57.0377C40.6899 57.176 40.8065 57.3454 40.8827 57.5337C40.9589 57.722 40.9928 57.9248 40.9821 58.1277V60.92C41.0072 61.1309 40.9841 61.3448 40.9145 61.5455C40.845 61.7462 40.7309 61.9285 40.5807 62.0786C40.4305 62.2288 40.2482 62.343 40.0475 62.4125C39.8468 62.482 39.633 62.5051 39.4221 62.48C39.22 62.5083 39.0141 62.4912 38.8195 62.4299C38.6249 62.3686 38.4464 62.2647 38.2969 62.1257C38.1475 61.9868 38.031 61.8163 37.9557 61.6266C37.8805 61.4369 37.8485 61.2328 37.8621 61.0292ZM39.9525 61.0292V58.1745C39.9525 58.0297 39.8949 57.8908 39.7926 57.7884C39.6902 57.686 39.5513 57.6285 39.4065 57.6285C39.2617 57.6285 39.1228 57.686 39.0204 57.7884C38.918 57.8908 38.8605 58.0297 38.8605 58.1745V61.0292C38.8538 61.1041 38.8631 61.1794 38.8878 61.2504C38.9124 61.3213 38.9518 61.3863 39.0035 61.4408C39.0551 61.4954 39.1177 61.5384 39.1872 61.5669C39.2567 61.5955 39.3314 61.6089 39.4065 61.6064C39.4808 61.6113 39.5552 61.5999 39.6247 61.5732C39.6942 61.5465 39.7571 61.505 39.809 61.4516C39.8609 61.3982 39.9006 61.3342 39.9254 61.264C39.9502 61.1937 39.9594 61.119 39.9525 61.0448V61.0292Z" fill="white"/>
<path d="M41.7 56.8486H42.714L43.9931 60.0622V56.8486H44.8666V62.4177H43.9931L42.6203 58.8454V62.4177H41.7467L41.7 56.8486Z" fill="white"/>
<path d="M46.5824 56.833H47.924L49.016 62.4177H48.0176L47.768 61.0605H46.6136L46.364 62.4177H45.4592L46.5824 56.833ZM47.612 60.2649L47.2064 57.9562L46.7696 60.2025L47.612 60.2649Z" fill="white"/>
<path d="M49.6244 56.8486H50.6072V61.5285H52.1672V62.3709H49.6244V56.8486Z" fill="white"/>
<path d="M54.0392 56.8486H56.582V57.691H55.022V59.1574H56.2856V59.9997H55.022V62.4177H54.0548L54.0392 56.8486Z" fill="white"/>
<path d="M57.8456 56.833H59.1872L60.2791 62.4177H59.2808L59.0312 61.0605H57.8768L57.6272 62.4177H56.7224L57.8456 56.833ZM58.8752 60.2649L58.4696 57.9562L58.0328 60.2025L58.8752 60.2649Z" fill="white"/>
<path d="M60.7472 61.0915V58.1588C60.7459 57.9605 60.7867 57.7642 60.8668 57.5828C60.9469 57.4015 61.0645 57.2391 61.2119 57.1065C61.3593 56.9739 61.5331 56.8739 61.7219 56.8133C61.9106 56.7527 62.1101 56.7327 62.3072 56.7548C62.4899 56.7348 62.6749 56.754 62.8496 56.8111C63.0244 56.8681 63.185 56.9618 63.3208 57.0857C63.4566 57.2097 63.5644 57.3612 63.6371 57.53C63.7098 57.6989 63.7456 57.8813 63.7423 58.0652V58.6424H62.8532V58.112C62.858 58.0397 62.8471 57.9673 62.8211 57.8996C62.7952 57.832 62.7549 57.7709 62.7029 57.7204C62.651 57.6699 62.5887 57.6314 62.5203 57.6074C62.452 57.5834 62.3792 57.5746 62.3072 57.5816C62.2314 57.5764 62.1554 57.588 62.0847 57.6157C62.014 57.6433 61.9502 57.6862 61.898 57.7414C61.8458 57.7966 61.8065 57.8626 61.7828 57.9347C61.7592 58.0069 61.7518 58.0834 61.7612 58.1588V61.0135C61.7514 61.0903 61.7591 61.1683 61.7836 61.2417C61.8081 61.3151 61.8489 61.382 61.9029 61.4375C61.9568 61.4929 62.0226 61.5355 62.0953 61.5621C62.168 61.5886 62.2457 61.5984 62.3228 61.5907C62.3928 61.5977 62.4635 61.5893 62.53 61.5662C62.5964 61.543 62.657 61.5056 62.7075 61.4565C62.758 61.4075 62.7972 61.3481 62.8224 61.2823C62.8475 61.2166 62.858 61.1462 62.8532 61.0759V60.5456H63.7423V61.1227C63.7476 61.3085 63.7133 61.4932 63.6418 61.6646C63.5702 61.8361 63.4631 61.9904 63.3273 62.1172C63.1916 62.2441 63.0305 62.3407 62.8546 62.4005C62.6787 62.4603 62.4921 62.4821 62.3072 62.4643C62.1114 62.494 61.9115 62.4804 61.7215 62.4246C61.5315 62.3688 61.3561 62.2721 61.2074 62.1413C61.0588 62.0105 60.9405 61.8487 60.861 61.6674C60.7815 61.486 60.7427 61.2895 60.7472 61.0915Z" fill="white"/>
<path d="M64.3975 61.0761V56.8486H65.3959V61.0293C65.3844 61.1066 65.39 61.1854 65.4125 61.2602C65.4349 61.335 65.4736 61.4039 65.5257 61.462C65.5779 61.5202 65.6422 61.566 65.7142 61.5964C65.7861 61.6268 65.8639 61.6409 65.9419 61.6377C66.3007 61.6377 66.4723 61.3881 66.4723 61.0293V56.8486H67.3927V61.0449C67.4034 61.2478 67.3695 61.4506 67.2933 61.6389C67.2171 61.8272 67.1005 61.9966 66.9518 62.1349C66.803 62.2733 66.6257 62.3773 66.4323 62.4396C66.239 62.502 66.0343 62.5211 65.8327 62.4957C65.6409 62.5149 65.4472 62.4914 65.2654 62.427C65.0837 62.3627 64.9184 62.259 64.7813 62.1234C64.6442 61.9879 64.5388 61.8237 64.4724 61.6427C64.4061 61.4616 64.3805 61.2682 64.3975 61.0761Z" fill="white"/>
<path d="M68.2039 56.8486H69.1711V61.5285H70.7311V62.3709H68.2039V56.8486Z" fill="white"/>
<path d="M71.7919 57.691H70.7467V56.8486H73.8667V57.691H72.8215V62.3709H71.8231L71.7919 57.691Z" fill="white"/>
<path d="M75.3175 60.2028L74.1631 56.8645H75.1927L75.8479 59.0329L76.4875 56.8645H77.4235L76.3003 60.2028V62.4336H75.3175V60.2028Z" fill="white"/>
</g>
</svg>
