<?xml version="1.0" encoding="UTF-8"?>
<svg id="Layer_1" data-name="Layer 1" xmlns="http://www.w3.org/2000/svg" xmlns:xlink="http://www.w3.org/1999/xlink" viewBox="0 0 100 100">
  <defs>
    <style>
      .cls-1 {
        fill: #fff;
        fill-rule: evenodd;
      }

      .cls-2 {
        fill: url(#linear-gradient);
      }
    </style>
    <linearGradient id="linear-gradient" x1="4.79" y1="59.41" x2="40.11" y2="44.8" gradientTransform="translate(0 102) scale(1 -1)" gradientUnits="userSpaceOnUse">
      <stop offset="0" stop-color="#fe4537"/>
      <stop offset=".51" stop-color="#de1b7c"/>
      <stop offset="1" stop-color="#4352ff"/>
    </linearGradient>
  </defs>
  <path d="M50.25,37.61v5.88h1.59v-5.88h2.16v-1.33h-5.91v1.33h2.16Z"/>
  <path d="M56.15,37.45v-1.18h-1.44v1.18h1.44ZM54.72,38.26v5.23h1.44v-5.23h-1.44Z"/>
  <path d="M57.33,38.26v5.23h1.44v-3.03c0-.26.04-.46.11-.62.07-.16.16-.28.26-.36.11-.09.22-.14.32-.17.11-.03.21-.05.27-.05.23,0,.4.04.52.12.12.07.21.18.25.3.05.13.08.27.09.42,0,.15.01.3.01.45v2.93h1.44v-2.91c0-.16.01-.32.03-.48.03-.16.07-.3.14-.42.07-.13.17-.23.29-.3.13-.08.29-.12.5-.12s.36.03.48.1c.12.07.21.16.27.27.06.11.1.25.11.4.01.16.02.32.02.5v2.96h1.44v-3.5c0-.34-.05-.62-.14-.86-.09-.24-.23-.44-.39-.59-.17-.15-.37-.26-.61-.32-.24-.07-.49-.1-.77-.1-.36,0-.68.09-.95.26-.26.18-.47.38-.63.61-.14-.32-.35-.55-.63-.68-.27-.13-.57-.19-.9-.19s-.65.07-.92.22c-.26.15-.49.36-.68.63h-.02v-.71h-1.35Z"/>
  <path d="M69.97,40.32h-2.34c0-.1.03-.22.06-.34.04-.13.1-.25.19-.36.09-.11.22-.21.36-.28.16-.08.35-.12.58-.12.35,0,.61.09.78.28.18.19.3.47.36.83ZM67.63,41.23h3.77c.03-.4,0-.79-.1-1.16-.09-.37-.25-.7-.47-.99-.21-.29-.48-.52-.81-.69-.33-.18-.72-.26-1.16-.26-.4,0-.76.07-1.09.21-.32.14-.6.34-.84.59-.24.24-.42.53-.55.87-.13.34-.19.7-.19,1.09s.06.78.18,1.11c.13.34.31.63.54.87.23.24.51.43.84.57.33.13.7.19,1.11.19.59,0,1.1-.13,1.52-.4s.73-.72.93-1.34h-1.26c-.05.16-.18.32-.38.47-.21.14-.46.21-.75.21-.4,0-.71-.1-.93-.31-.22-.21-.33-.55-.35-1.01Z"/>
  <path d="M73.36,41.79h-1.36c.01.35.09.64.23.88.15.23.33.41.56.56.23.14.49.24.78.3.29.06.59.09.89.09s.59-.03.87-.09c.29-.05.55-.15.77-.29.22-.14.4-.33.54-.56.14-.24.21-.53.21-.87,0-.24-.05-.44-.14-.61-.09-.17-.22-.31-.37-.41-.15-.11-.33-.21-.54-.27-.2-.07-.4-.12-.61-.17-.2-.05-.4-.09-.6-.13-.2-.04-.37-.08-.53-.13-.15-.05-.27-.12-.36-.2s-.14-.19-.14-.31c0-.11.03-.19.08-.25.05-.07.12-.12.19-.15.08-.03.17-.05.26-.06.09-.01.18-.02.26-.02.26,0,.48.05.67.15.19.09.29.28.31.56h1.36c-.03-.32-.11-.59-.25-.8-.13-.22-.31-.39-.52-.52-.21-.13-.45-.22-.72-.27-.26-.05-.54-.08-.82-.08s-.56.03-.83.08c-.27.05-.51.13-.73.26-.22.12-.39.29-.53.51-.13.22-.19.49-.19.83,0,.23.05.42.14.59.09.16.22.29.37.39.15.1.33.19.53.25.2.06.41.11.62.16.51.11.91.22,1.19.32.29.11.43.27.43.49,0,.13-.03.24-.09.32-.06.08-.14.15-.23.2-.09.05-.19.08-.3.11-.11.02-.21.03-.31.03-.14,0-.28-.02-.41-.05-.13-.03-.24-.08-.34-.15-.1-.07-.19-.17-.25-.27-.06-.11-.09-.25-.09-.4Z"/>
  <path d="M48.07,46.38v7.22h1.59v-3.11h2.92v3.11h1.59v-7.22h-1.59v2.77h-2.92v-2.77h-1.59Z"/>
  <path d="M56.89,47.57v-1.18h-1.44v1.18h1.44ZM55.46,48.37v5.23h1.44v-5.23h-1.44Z"/>
  <path d="M60.46,52.37c-.22,0-.41-.05-.56-.14-.15-.09-.27-.22-.36-.36-.09-.15-.15-.31-.19-.5-.03-.19-.05-.38-.05-.57s.02-.38.06-.56c.05-.18.12-.34.21-.48.1-.14.22-.25.36-.33.15-.08.32-.12.53-.12.24,0,.43.04.59.13.16.09.28.21.37.35.09.15.16.32.2.52.04.19.06.39.06.61,0,.19-.03.37-.08.55-.05.17-.12.32-.22.45-.1.13-.23.24-.38.32-.15.08-.33.12-.54.12ZM63.05,53.27v-4.89h-1.36v.7h-.02c-.18-.3-.39-.52-.66-.65-.26-.13-.56-.19-.9-.19-.36,0-.69.07-.97.21-.28.14-.51.33-.7.58-.19.24-.33.51-.43.83-.09.31-.14.63-.14.97,0,.36.04.7.12,1.02.09.32.22.6.4.84.18.24.41.42.7.57.28.13.62.2,1.01.2.32,0,.62-.06.9-.19.29-.13.51-.34.67-.62h.02v.69c0,.37-.08.68-.27.92-.18.24-.48.36-.88.36-.26,0-.48-.05-.68-.16-.2-.1-.33-.29-.39-.56h-1.43c.02.3.1.55.24.76.15.22.33.39.55.53.22.13.47.23.73.29.27.07.53.1.79.1.6,0,1.08-.08,1.44-.24.36-.16.63-.36.82-.6.19-.23.31-.48.36-.75.06-.27.09-.51.09-.72Z"/>
  <path d="M64.2,46.38v7.22h1.44v-2.74c0-.53.09-.91.26-1.14.18-.24.46-.35.85-.35.34,0,.58.11.72.32.13.21.2.53.2.96v2.95h1.44v-3.22c0-.32-.03-.62-.09-.88-.05-.27-.15-.5-.29-.68-.14-.19-.34-.33-.59-.43-.24-.11-.56-.16-.94-.16-.27,0-.55.07-.83.21-.28.13-.52.35-.7.66h-.03v-2.72h-1.44Z"/>
  <path d="M73.71,50.43h-2.34c0-.1.03-.22.06-.34.04-.13.1-.25.19-.36.09-.11.22-.21.36-.28.16-.08.35-.12.58-.12.35,0,.61.09.78.28.18.19.3.47.36.83ZM71.38,51.34h3.77c.03-.4,0-.79-.1-1.16-.09-.37-.25-.7-.46-.99-.21-.29-.48-.52-.81-.69-.33-.18-.72-.26-1.16-.26-.4,0-.76.07-1.09.21-.32.14-.6.34-.84.59-.24.24-.42.53-.55.87-.13.34-.19.7-.19,1.09s.06.78.18,1.11c.13.34.31.63.54.87.23.24.51.43.84.57.33.13.7.19,1.11.19.59,0,1.1-.13,1.52-.4s.73-.72.93-1.34h-1.26c-.05.16-.18.32-.38.47-.21.14-.46.21-.75.21-.4,0-.71-.1-.93-.31-.22-.21-.33-.55-.35-1.01Z"/>
  <path d="M76,48.37v5.23h1.44v-2.36c0-.24.02-.45.07-.66.05-.2.12-.38.23-.53.11-.16.26-.28.44-.36.18-.09.4-.13.67-.13.09,0,.18,0,.27.02.09,0,.18.02.24.03v-1.33c-.11-.03-.22-.05-.31-.05-.18,0-.36.03-.53.08s-.33.13-.48.23c-.15.09-.28.21-.39.35-.11.13-.21.28-.27.44h-.02v-.97h-1.36Z"/>
  <path d="M48.07,56.41v7.22h5.48v-1.33h-3.89v-1.77h3.5v-1.23h-3.5v-1.55h3.81v-1.33h-5.4Z"/>
  <path d="M58.19,61c0,.22-.02.42-.06.63-.04.2-.11.38-.2.55-.09.16-.22.28-.38.37-.15.09-.35.14-.59.14-.22,0-.41-.05-.58-.14-.16-.1-.29-.23-.39-.38-.1-.16-.18-.34-.22-.55-.05-.2-.07-.4-.07-.61,0-.22.02-.42.06-.62.05-.2.12-.38.21-.54.1-.15.23-.28.39-.37.16-.09.36-.14.6-.14s.43.05.59.14c.16.09.28.22.37.37.1.15.17.32.21.53.04.2.06.4.06.62ZM58.21,62.97v.67h1.36v-7.22h-1.44v2.63h-.02c-.16-.26-.38-.45-.67-.58-.28-.13-.57-.2-.88-.2-.38,0-.72.08-1.01.23-.29.15-.53.35-.73.6-.19.25-.33.54-.43.87-.09.32-.14.66-.14,1.01s.05.71.14,1.05c.1.34.25.64.43.9.2.26.44.46.74.62.3.15.64.22,1.03.22.34,0,.65-.06.92-.18.28-.13.5-.33.67-.62h.02Z"/>
  <path d="M65.56,63.63v-5.23h-1.44v2.74c0,.53-.09.92-.26,1.15-.18.23-.46.34-.85.34-.34,0-.58-.1-.72-.31-.13-.22-.2-.54-.2-.97v-2.95h-1.44v3.22c0,.32.03.62.08.89.06.26.16.49.3.68.14.18.33.32.58.42.25.1.57.15.95.15.3,0,.6-.07.89-.2.29-.13.53-.35.71-.66h.03v.73h1.36Z"/>
  <path d="M70.21,60.25h1.41c-.02-.34-.1-.63-.24-.87-.14-.25-.33-.45-.56-.62-.22-.17-.48-.29-.77-.37-.28-.08-.58-.12-.89-.12-.42,0-.8.07-1.13.21-.33.14-.61.34-.84.6-.23.25-.4.55-.53.9-.11.34-.17.72-.17,1.12s.06.75.19,1.08c.13.32.31.6.54.84.23.24.51.42.83.56.33.13.69.19,1.08.19.69,0,1.26-.18,1.71-.55.44-.36.71-.89.81-1.59h-1.39c-.05.32-.17.58-.35.78-.18.19-.44.28-.79.28-.22,0-.41-.05-.57-.15-.16-.1-.28-.23-.37-.38-.09-.16-.15-.34-.19-.54-.04-.2-.06-.39-.06-.58s.02-.39.06-.59c.04-.2.11-.38.2-.55.1-.17.23-.3.38-.4.15-.11.35-.16.58-.16.61,0,.97.3,1.06.9Z"/>
  <path d="M72.4,60.01c.02-.34.1-.62.25-.84.15-.22.34-.4.57-.54.23-.13.49-.23.77-.28.29-.06.58-.09.87-.09.26,0,.53.02.8.06.27.03.52.1.74.21.22.11.4.26.55.45.14.19.21.44.21.76v2.72c0,.24.01.46.04.68.03.22.07.38.14.49h-1.46c-.03-.08-.05-.16-.07-.24-.01-.09-.02-.18-.03-.26-.23.24-.5.4-.81.5-.31.09-.63.14-.95.14-.25,0-.48-.03-.7-.09-.22-.06-.4-.15-.57-.28-.16-.13-.29-.29-.38-.49-.09-.2-.13-.43-.13-.7,0-.3.05-.54.15-.73.11-.2.24-.35.4-.47.17-.11.36-.2.57-.25.22-.06.43-.11.65-.14.22-.03.43-.06.64-.08.21-.02.39-.05.56-.09.16-.04.29-.1.38-.17.09-.08.14-.2.13-.34,0-.16-.03-.28-.08-.36-.05-.09-.11-.17-.2-.21-.08-.05-.18-.09-.29-.1-.11-.02-.23-.03-.35-.03-.28,0-.51.06-.67.18-.16.12-.26.32-.28.61h-1.44ZM75.71,61.08c-.06.05-.14.1-.23.13-.09.03-.19.05-.29.07-.1.02-.21.04-.32.05-.11.01-.23.03-.34.05-.11.02-.22.05-.32.08-.1.03-.19.08-.27.14-.07.05-.13.12-.18.21-.05.09-.07.2-.07.33s.02.24.07.32c.05.09.11.16.19.21.08.05.18.08.28.1.11.02.22.03.33.03.28,0,.5-.05.66-.14.15-.09.27-.21.34-.33.07-.13.12-.27.13-.4.02-.13.03-.24.03-.32v-.54Z"/>
  <path d="M80.08,58.41v-1.57h-1.44v1.57h-.87v.96h.87v3.08c0,.26.04.48.13.64.09.16.21.29.35.37.15.09.33.14.53.17.2.03.41.05.64.05.14,0,.29,0,.43-.01.15,0,.28-.02.4-.04v-1.11c-.07.01-.14.02-.21.03-.07,0-.15.01-.23.01-.24,0-.4-.04-.49-.12-.08-.08-.12-.24-.12-.49v-2.59h1.05v-.96h-1.05Z"/>
  <path d="M83.29,57.6v-1.18h-1.44v1.18h1.44ZM81.86,58.41v5.23h1.44v-5.23h-1.44Z"/>
  <path d="M85.7,61.02c0-.21.02-.41.06-.62.04-.2.11-.38.2-.54.1-.15.23-.28.39-.37.16-.1.36-.15.61-.15s.44.05.61.15c.17.09.3.22.39.37.1.16.17.33.21.54.04.2.06.41.06.62s-.02.41-.06.62c-.04.2-.11.37-.21.54-.09.16-.23.28-.39.37-.16.09-.36.14-.61.14s-.44-.05-.61-.14c-.16-.09-.29-.22-.39-.37-.09-.16-.16-.34-.2-.54-.04-.2-.06-.41-.06-.62ZM84.26,61.02c0,.42.06.8.19,1.13.13.34.31.63.55.87.24.24.52.42.85.55.33.13.7.19,1.11.19s.78-.06,1.11-.19c.34-.13.62-.31.86-.55.24-.24.42-.53.55-.87.13-.34.19-.71.19-1.13s-.06-.8-.19-1.13c-.13-.34-.31-.63-.55-.87-.24-.24-.52-.43-.86-.56-.33-.13-.7-.2-1.11-.2s-.78.07-1.11.2c-.33.13-.61.31-.85.56-.24.24-.42.53-.55.87-.13.34-.19.71-.19,1.13Z"/>
  <path d="M90.6,58.41v5.23h1.44v-2.74c0-.53.09-.91.26-1.14.18-.24.46-.35.85-.35.34,0,.58.11.72.32.13.21.2.53.2.96v2.95h1.44v-3.22c0-.32-.03-.62-.09-.88-.05-.27-.15-.5-.29-.68-.14-.19-.34-.33-.59-.43-.24-.11-.56-.16-.94-.16-.3,0-.6.07-.89.21-.29.13-.53.35-.71.66h-.03v-.73h-1.36Z"/>
  <path class="cls-2" d="M4.49,39.08c0-4.02,3.26-7.28,7.28-7.28h21.85c4.02,0,7.28,3.26,7.28,7.28v21.85c0,4.02-3.26,7.28-7.28,7.28H11.77c-4.02,0-7.28-3.26-7.28-7.28v-21.85Z"/>
  <path class="cls-1" d="M23.51,38.65v9.7h-1.63v-9.7h-3.26v22.65h3.26v-9.71h1.63v9.71h3.26v-22.65h-3.26ZM10.52,38.65v3.23h1.62v19.41h3.25v-19.41h1.62v-3.23h-6.49ZM28.38,61.3v-22.65h6.49v3.23h-3.25v6.47h2.43v3.23h-2.43v6.47h3.25v3.23h-6.49Z"/>
</svg>