<?xml version="1.0" encoding="UTF-8"?>
<svg id="Layer_1" data-name="Layer 1" xmlns="http://www.w3.org/2000/svg" viewBox="0 0 100 100">
  <defs>
    <style>
      .cls-1 {
        fill: #01a769;
      }
    </style>
  </defs>
  <g id="WES_Logo_RGB-Primary_Green_1" data-name="WES_Logo_RGB-Primary_Green 1">
    <path id="Vector" class="cls-1" d="M95.84,41.68c-1.63-16.55-23.47-26.25-48.79-21.65C21.73,24.62,2.53,41.76,4.16,58.32c1.63,16.55,23.47,26.25,48.79,21.65,25.31-4.59,44.52-21.73,42.89-38.28h0ZM52.98,77.6c-22.73,2.47-42.48-7.88-44.13-23.12-.6-5.58,1.32-11.04,5.09-15.84,1.17.43,1.85,1.65,2.54,3.53l7.32,20.74h2.32c.89-5.07,2.12-9.67,4.06-19.28,2.18,7.12,4.76,14.91,6.02,19.28h2.63l3.85-18.27c.62-2.95,1.65-4.88,3.01-5.69.1-.05.24-.1.38-.1.23,0,.39.17.39.17.45.41.75,1.13.75,2.4v17.86c0,2.46-1.5,2.92-2.8,3.05h-.12v.58h18.79l.02-.11,1.56-7.31.03-.16h-.79l-.03.1c-1.16,4.54-5.5,6.61-9.05,6.61h-2.97v-11.64h2.05c3.68,0,5.19,1.05,5.78,4.03l.02.11h.7v-9.16h-.7l-.02.11c-.58,2.97-2.1,4.03-5.78,4.03h-2.05v-10.72h3.1c1.65,0,5.74.52,8.08,5.33l.04.07h.74l-.03-.16-1.24-6.01-.02-.11h-24.34v.57h.13c1.09.06,1.92.44,2.47,1.12.98,1.21,1.14,3.43.47,6.6l-2.08,9.92c-2.61-8.02-4.92-14.94-5.84-18.36h-3.27c-.18,1.49-2.33,11.92-3.65,18.32l-4.78-13.73c-.52-1.44-.56-2.51-.13-3.17.29-.43.78-.67,1.46-.72h.13v-.57h-8.56c6.67-7.95,18.5-13.97,32.48-15.5,22.73-2.47,42.48,7.88,44.13,23.12,1.64,15.24-15.45,29.6-38.17,32.08h0Z"/>
    <path id="Vector_2" data-name="Vector 2" class="cls-1" d="M74.35,47.51c-3.04-1.36-5.91-2.65-5.91-5.34s2.51-4.07,5-4.07c3.23,0,5.27,2.28,5.88,6.6l.02.1.68.1,1.28-5.83-.08-.05c-1.95-1.11-4.72-1.78-7.41-1.78-6.1,0-8.26,3.76-8.26,6.99,0,4.74,3.56,6.33,7,7.87,3.02,1.34,5.87,2.62,5.87,5.97s-2.58,4.49-5,4.49c-3.26,0-5.08-2.06-6.03-6.85-.13-.73-.17-1.4-.17-1.4l-.56-.08-1.56,7.2.09.04c1.21.59,4.42,1.96,7.97,1.96,5.05,0,8.99-3.38,8.99-7.69,0-4.72-4.15-6.59-7.81-8.22Z"/>
  </g>
</svg>